G04 MADE WITH FRITZING*
G04 WWW.FRITZING.ORG*
G04 SINGLE SIDED*
G04 HOLES NOT PLATED*
G04 CONTOUR ON CENTER OF CONTOUR VECTOR*
%ASAXBY*%
%FSLAX23Y23*%
%MOIN*%
%OFA0B0*%
%SFA1.0B1.0*%
%ADD10C,0.610000X0.59*%
%ADD11R,2.614480X1.128110X2.598480X1.112110*%
%ADD12C,0.008000*%
%ADD13C,0.010000*%
%ADD14C,0.005000*%
%ADD15R,0.001000X0.001000*%
%LNSILK1*%
G90*
G70*
G54D10*
X1844Y562D03*
G54D12*
X4Y1124D02*
X2610Y1124D01*
X2610Y4D01*
X4Y4D01*
X4Y1124D01*
D02*
G54D13*
X1344Y649D02*
X1344Y721D01*
D02*
X1344Y921D02*
X1344Y974D01*
D02*
X1311Y721D02*
X1311Y921D01*
D02*
X1311Y921D02*
X1377Y921D01*
D02*
X1377Y921D02*
X1377Y721D01*
D02*
X1377Y721D02*
X1311Y721D01*
G54D12*
D02*
X644Y887D02*
X1044Y887D01*
D02*
X1044Y887D02*
X1044Y737D01*
D02*
X1044Y737D02*
X1044Y712D01*
D02*
X1044Y712D02*
X644Y712D01*
D02*
X644Y712D02*
X644Y737D01*
D02*
X644Y737D02*
X644Y887D01*
D02*
X644Y737D02*
X1044Y737D01*
G54D13*
D02*
X94Y762D02*
X94Y462D01*
D02*
X94Y462D02*
X194Y462D01*
D02*
X194Y462D02*
X194Y762D01*
D02*
X194Y762D02*
X94Y762D01*
G54D14*
D02*
X94Y727D02*
X129Y762D01*
G54D13*
D02*
X2294Y762D02*
X2294Y462D01*
D02*
X2294Y462D02*
X2394Y462D01*
D02*
X2394Y462D02*
X2394Y762D01*
D02*
X2394Y762D02*
X2294Y762D01*
G54D14*
D02*
X2294Y727D02*
X2329Y762D01*
G54D13*
D02*
X694Y162D02*
X1194Y162D01*
D02*
X1194Y162D02*
X1194Y262D01*
D02*
X1194Y262D02*
X694Y262D01*
D02*
X694Y262D02*
X694Y162D01*
G54D14*
D02*
X729Y162D02*
X694Y197D01*
G54D15*
X1791Y991D02*
X1808Y991D01*
X1788Y990D02*
X1811Y990D01*
X1833Y990D02*
X1837Y990D01*
X1787Y989D02*
X1812Y989D01*
X1832Y989D02*
X1838Y989D01*
X1786Y988D02*
X1813Y988D01*
X1832Y988D02*
X1838Y988D01*
X1785Y987D02*
X1814Y987D01*
X1832Y987D02*
X1838Y987D01*
X1785Y986D02*
X1814Y986D01*
X1832Y986D02*
X1838Y986D01*
X1785Y985D02*
X1814Y985D01*
X1832Y985D02*
X1838Y985D01*
X1785Y984D02*
X1791Y984D01*
X1808Y984D02*
X1814Y984D01*
X1832Y984D02*
X1838Y984D01*
X1785Y983D02*
X1791Y983D01*
X1808Y983D02*
X1814Y983D01*
X1832Y983D02*
X1838Y983D01*
X1785Y982D02*
X1791Y982D01*
X1808Y982D02*
X1814Y982D01*
X1832Y982D02*
X1838Y982D01*
X1785Y981D02*
X1791Y981D01*
X1808Y981D02*
X1814Y981D01*
X1832Y981D02*
X1838Y981D01*
X1785Y980D02*
X1791Y980D01*
X1808Y980D02*
X1814Y980D01*
X1832Y980D02*
X1838Y980D01*
X1785Y979D02*
X1791Y979D01*
X1808Y979D02*
X1814Y979D01*
X1832Y979D02*
X1838Y979D01*
X1785Y978D02*
X1791Y978D01*
X1808Y978D02*
X1814Y978D01*
X1832Y978D02*
X1838Y978D01*
X1785Y977D02*
X1791Y977D01*
X1808Y977D02*
X1814Y977D01*
X1832Y977D02*
X1838Y977D01*
X1785Y976D02*
X1791Y976D01*
X1808Y976D02*
X1814Y976D01*
X1832Y976D02*
X1838Y976D01*
X1785Y975D02*
X1791Y975D01*
X1808Y975D02*
X1814Y975D01*
X1832Y975D02*
X1838Y975D01*
X1785Y974D02*
X1791Y974D01*
X1808Y974D02*
X1814Y974D01*
X1832Y974D02*
X1838Y974D01*
X1785Y973D02*
X1791Y973D01*
X1808Y973D02*
X1814Y973D01*
X1832Y973D02*
X1838Y973D01*
X1785Y972D02*
X1791Y972D01*
X1808Y972D02*
X1814Y972D01*
X1832Y972D02*
X1838Y972D01*
X1785Y971D02*
X1791Y971D01*
X1808Y971D02*
X1814Y971D01*
X1832Y971D02*
X1838Y971D01*
X1785Y970D02*
X1791Y970D01*
X1808Y970D02*
X1814Y970D01*
X1832Y970D02*
X1838Y970D01*
X1785Y969D02*
X1791Y969D01*
X1808Y969D02*
X1814Y969D01*
X1832Y969D02*
X1838Y969D01*
X1785Y968D02*
X1791Y968D01*
X1808Y968D02*
X1814Y968D01*
X1832Y968D02*
X1838Y968D01*
X1785Y967D02*
X1791Y967D01*
X1808Y967D02*
X1814Y967D01*
X1832Y967D02*
X1838Y967D01*
X1785Y966D02*
X1791Y966D01*
X1808Y966D02*
X1814Y966D01*
X1832Y966D02*
X1838Y966D01*
X1785Y965D02*
X1791Y965D01*
X1808Y965D02*
X1814Y965D01*
X1832Y965D02*
X1838Y965D01*
X1785Y964D02*
X1791Y964D01*
X1808Y964D02*
X1814Y964D01*
X1832Y964D02*
X1838Y964D01*
X1785Y963D02*
X1791Y963D01*
X1808Y963D02*
X1838Y963D01*
X1785Y962D02*
X1791Y962D01*
X1809Y962D02*
X1838Y962D01*
X1785Y961D02*
X1791Y961D01*
X1809Y961D02*
X1838Y961D01*
X1785Y960D02*
X1791Y960D01*
X1809Y960D02*
X1838Y960D01*
X1785Y959D02*
X1791Y959D01*
X1810Y959D02*
X1838Y959D01*
X1785Y958D02*
X1790Y958D01*
X1811Y958D02*
X1838Y958D01*
X1787Y957D02*
X1789Y957D01*
X1813Y957D02*
X1838Y957D01*
X1786Y940D02*
X1790Y940D01*
X1833Y940D02*
X1837Y940D01*
X1785Y939D02*
X1790Y939D01*
X1832Y939D02*
X1838Y939D01*
X1785Y938D02*
X1791Y938D01*
X1832Y938D02*
X1838Y938D01*
X1785Y937D02*
X1791Y937D01*
X1832Y937D02*
X1838Y937D01*
X1785Y936D02*
X1791Y936D01*
X1832Y936D02*
X1838Y936D01*
X1785Y935D02*
X1791Y935D01*
X1832Y935D02*
X1838Y935D01*
X1785Y934D02*
X1791Y934D01*
X1832Y934D02*
X1838Y934D01*
X1785Y933D02*
X1791Y933D01*
X1832Y933D02*
X1838Y933D01*
X1785Y932D02*
X1791Y932D01*
X1832Y932D02*
X1838Y932D01*
X1785Y931D02*
X1791Y931D01*
X1832Y931D02*
X1838Y931D01*
X1785Y930D02*
X1791Y930D01*
X1832Y930D02*
X1838Y930D01*
X1785Y929D02*
X1791Y929D01*
X1832Y929D02*
X1838Y929D01*
X1785Y928D02*
X1791Y928D01*
X1832Y928D02*
X1838Y928D01*
X1785Y927D02*
X1791Y927D01*
X1832Y927D02*
X1838Y927D01*
X1785Y926D02*
X1791Y926D01*
X1832Y926D02*
X1838Y926D01*
X1785Y925D02*
X1791Y925D01*
X1832Y925D02*
X1838Y925D01*
X1785Y924D02*
X1791Y924D01*
X1832Y924D02*
X1838Y924D01*
X1785Y923D02*
X1791Y923D01*
X1832Y923D02*
X1838Y923D01*
X1785Y922D02*
X1792Y922D01*
X1831Y922D02*
X1838Y922D01*
X1785Y921D02*
X1794Y921D01*
X1829Y921D02*
X1837Y921D01*
X1786Y920D02*
X1796Y920D01*
X1827Y920D02*
X1837Y920D01*
X1786Y919D02*
X1798Y919D01*
X1825Y919D02*
X1836Y919D01*
X1787Y918D02*
X1800Y918D01*
X1823Y918D02*
X1835Y918D01*
X1788Y917D02*
X1802Y917D01*
X1821Y917D02*
X1835Y917D01*
X1789Y916D02*
X1804Y916D01*
X1819Y916D02*
X1833Y916D01*
X1791Y915D02*
X1806Y915D01*
X1817Y915D02*
X1832Y915D01*
X1793Y914D02*
X1808Y914D01*
X1815Y914D02*
X1830Y914D01*
X1795Y913D02*
X1828Y913D01*
X1797Y912D02*
X1826Y912D01*
X1799Y911D02*
X1824Y911D01*
X1801Y910D02*
X1822Y910D01*
X1803Y909D02*
X1820Y909D01*
X1805Y908D02*
X1818Y908D01*
X1808Y907D02*
X1815Y907D01*
X1239Y870D02*
X1259Y870D01*
X1238Y869D02*
X1260Y869D01*
X1237Y868D02*
X1261Y868D01*
X1237Y867D02*
X1261Y867D01*
X135Y866D02*
X137Y866D01*
X161Y866D02*
X179Y866D01*
X1237Y866D02*
X1261Y866D01*
X134Y865D02*
X139Y865D01*
X160Y865D02*
X179Y865D01*
X1238Y865D02*
X1261Y865D01*
X134Y864D02*
X139Y864D01*
X159Y864D02*
X179Y864D01*
X1239Y864D02*
X1261Y864D01*
X133Y863D02*
X139Y863D01*
X159Y863D02*
X179Y863D01*
X549Y863D02*
X592Y863D01*
X1255Y863D02*
X1261Y863D01*
X133Y862D02*
X139Y862D01*
X159Y862D02*
X179Y862D01*
X546Y862D02*
X593Y862D01*
X1255Y862D02*
X1261Y862D01*
X133Y861D02*
X139Y861D01*
X160Y861D02*
X179Y861D01*
X545Y861D02*
X594Y861D01*
X1255Y861D02*
X1261Y861D01*
X2447Y861D02*
X2451Y861D01*
X2473Y861D02*
X2502Y861D01*
X133Y860D02*
X139Y860D01*
X161Y860D02*
X179Y860D01*
X544Y860D02*
X594Y860D01*
X1255Y860D02*
X1261Y860D01*
X2446Y860D02*
X2451Y860D01*
X2472Y860D02*
X2503Y860D01*
X133Y859D02*
X139Y859D01*
X173Y859D02*
X179Y859D01*
X543Y859D02*
X594Y859D01*
X1255Y859D02*
X1261Y859D01*
X2446Y859D02*
X2452Y859D01*
X2472Y859D02*
X2504Y859D01*
X133Y858D02*
X139Y858D01*
X173Y858D02*
X179Y858D01*
X542Y858D02*
X594Y858D01*
X1255Y858D02*
X1261Y858D01*
X2446Y858D02*
X2452Y858D01*
X2472Y858D02*
X2505Y858D01*
X133Y857D02*
X139Y857D01*
X173Y857D02*
X179Y857D01*
X542Y857D02*
X593Y857D01*
X1255Y857D02*
X1261Y857D01*
X2446Y857D02*
X2452Y857D01*
X2472Y857D02*
X2505Y857D01*
X133Y856D02*
X139Y856D01*
X173Y856D02*
X179Y856D01*
X542Y856D02*
X549Y856D01*
X1208Y856D02*
X1261Y856D01*
X2446Y856D02*
X2452Y856D01*
X2473Y856D02*
X2505Y856D01*
X133Y855D02*
X139Y855D01*
X173Y855D02*
X179Y855D01*
X541Y855D02*
X548Y855D01*
X1208Y855D02*
X1261Y855D01*
X2446Y855D02*
X2452Y855D01*
X2474Y855D02*
X2505Y855D01*
X133Y854D02*
X139Y854D01*
X173Y854D02*
X179Y854D01*
X541Y854D02*
X547Y854D01*
X1208Y854D02*
X1261Y854D01*
X2446Y854D02*
X2452Y854D01*
X2499Y854D02*
X2505Y854D01*
X133Y853D02*
X139Y853D01*
X173Y853D02*
X179Y853D01*
X541Y853D02*
X547Y853D01*
X1208Y853D02*
X1261Y853D01*
X2446Y853D02*
X2452Y853D01*
X2499Y853D02*
X2505Y853D01*
X133Y852D02*
X139Y852D01*
X173Y852D02*
X179Y852D01*
X541Y852D02*
X547Y852D01*
X1208Y852D02*
X1261Y852D01*
X2446Y852D02*
X2452Y852D01*
X2499Y852D02*
X2505Y852D01*
X133Y851D02*
X139Y851D01*
X173Y851D02*
X179Y851D01*
X541Y851D02*
X547Y851D01*
X1208Y851D02*
X1261Y851D01*
X2446Y851D02*
X2452Y851D01*
X2499Y851D02*
X2505Y851D01*
X133Y850D02*
X139Y850D01*
X173Y850D02*
X179Y850D01*
X541Y850D02*
X547Y850D01*
X1208Y850D02*
X1261Y850D01*
X2446Y850D02*
X2452Y850D01*
X2499Y850D02*
X2505Y850D01*
X133Y849D02*
X139Y849D01*
X173Y849D02*
X179Y849D01*
X541Y849D02*
X547Y849D01*
X1208Y849D02*
X1214Y849D01*
X1255Y849D02*
X1261Y849D01*
X2446Y849D02*
X2452Y849D01*
X2499Y849D02*
X2505Y849D01*
X133Y848D02*
X139Y848D01*
X173Y848D02*
X179Y848D01*
X541Y848D02*
X547Y848D01*
X1208Y848D02*
X1214Y848D01*
X1255Y848D02*
X1261Y848D01*
X2446Y848D02*
X2452Y848D01*
X2499Y848D02*
X2505Y848D01*
X133Y847D02*
X139Y847D01*
X173Y847D02*
X179Y847D01*
X541Y847D02*
X547Y847D01*
X1208Y847D02*
X1214Y847D01*
X1255Y847D02*
X1261Y847D01*
X2446Y847D02*
X2452Y847D01*
X2499Y847D02*
X2505Y847D01*
X133Y846D02*
X139Y846D01*
X173Y846D02*
X179Y846D01*
X541Y846D02*
X547Y846D01*
X1208Y846D02*
X1214Y846D01*
X1255Y846D02*
X1261Y846D01*
X2446Y846D02*
X2452Y846D01*
X2499Y846D02*
X2505Y846D01*
X133Y845D02*
X139Y845D01*
X173Y845D02*
X179Y845D01*
X541Y845D02*
X547Y845D01*
X1208Y845D02*
X1214Y845D01*
X1255Y845D02*
X1261Y845D01*
X2446Y845D02*
X2452Y845D01*
X2499Y845D02*
X2505Y845D01*
X133Y844D02*
X139Y844D01*
X173Y844D02*
X179Y844D01*
X541Y844D02*
X547Y844D01*
X1208Y844D02*
X1214Y844D01*
X1255Y844D02*
X1261Y844D01*
X2446Y844D02*
X2452Y844D01*
X2499Y844D02*
X2505Y844D01*
X133Y843D02*
X139Y843D01*
X173Y843D02*
X179Y843D01*
X541Y843D02*
X547Y843D01*
X1208Y843D02*
X1214Y843D01*
X1255Y843D02*
X1261Y843D01*
X2446Y843D02*
X2452Y843D01*
X2499Y843D02*
X2505Y843D01*
X133Y842D02*
X139Y842D01*
X173Y842D02*
X179Y842D01*
X541Y842D02*
X547Y842D01*
X1208Y842D02*
X1214Y842D01*
X1255Y842D02*
X1261Y842D01*
X2446Y842D02*
X2452Y842D01*
X2499Y842D02*
X2505Y842D01*
X133Y841D02*
X139Y841D01*
X173Y841D02*
X179Y841D01*
X541Y841D02*
X547Y841D01*
X1208Y841D02*
X1214Y841D01*
X1255Y841D02*
X1261Y841D01*
X2446Y841D02*
X2452Y841D01*
X2499Y841D02*
X2505Y841D01*
X133Y840D02*
X139Y840D01*
X173Y840D02*
X179Y840D01*
X541Y840D02*
X547Y840D01*
X1208Y840D02*
X1214Y840D01*
X1255Y840D02*
X1261Y840D01*
X2446Y840D02*
X2452Y840D01*
X2499Y840D02*
X2505Y840D01*
X133Y839D02*
X139Y839D01*
X173Y839D02*
X179Y839D01*
X541Y839D02*
X547Y839D01*
X1208Y839D02*
X1214Y839D01*
X1255Y839D02*
X1261Y839D01*
X2446Y839D02*
X2452Y839D01*
X2499Y839D02*
X2505Y839D01*
X133Y838D02*
X139Y838D01*
X173Y838D02*
X179Y838D01*
X541Y838D02*
X547Y838D01*
X1208Y838D02*
X1213Y838D01*
X1255Y838D02*
X1261Y838D01*
X2446Y838D02*
X2452Y838D01*
X2477Y838D02*
X2505Y838D01*
X133Y837D02*
X139Y837D01*
X173Y837D02*
X179Y837D01*
X541Y837D02*
X548Y837D01*
X1209Y837D02*
X1213Y837D01*
X1256Y837D02*
X1260Y837D01*
X2446Y837D02*
X2452Y837D01*
X2475Y837D02*
X2505Y837D01*
X114Y836D02*
X117Y836D01*
X133Y836D02*
X139Y836D01*
X173Y836D02*
X179Y836D01*
X188Y836D02*
X192Y836D01*
X542Y836D02*
X550Y836D01*
X2446Y836D02*
X2452Y836D01*
X2474Y836D02*
X2505Y836D01*
X113Y835D02*
X118Y835D01*
X133Y835D02*
X139Y835D01*
X173Y835D02*
X179Y835D01*
X187Y835D02*
X192Y835D01*
X542Y835D02*
X593Y835D01*
X2446Y835D02*
X2452Y835D01*
X2473Y835D02*
X2505Y835D01*
X113Y834D02*
X119Y834D01*
X133Y834D02*
X139Y834D01*
X173Y834D02*
X179Y834D01*
X187Y834D02*
X193Y834D01*
X543Y834D02*
X594Y834D01*
X2446Y834D02*
X2452Y834D01*
X2472Y834D02*
X2504Y834D01*
X113Y833D02*
X119Y833D01*
X133Y833D02*
X139Y833D01*
X173Y833D02*
X179Y833D01*
X187Y833D02*
X193Y833D01*
X543Y833D02*
X594Y833D01*
X2446Y833D02*
X2452Y833D01*
X2472Y833D02*
X2503Y833D01*
X113Y832D02*
X119Y832D01*
X133Y832D02*
X139Y832D01*
X173Y832D02*
X179Y832D01*
X187Y832D02*
X193Y832D01*
X544Y832D02*
X594Y832D01*
X2427Y832D02*
X2429Y832D01*
X2446Y832D02*
X2452Y832D01*
X2472Y832D02*
X2501Y832D01*
X113Y831D02*
X119Y831D01*
X133Y831D02*
X139Y831D01*
X173Y831D02*
X179Y831D01*
X187Y831D02*
X193Y831D01*
X545Y831D02*
X594Y831D01*
X2426Y831D02*
X2430Y831D01*
X2446Y831D02*
X2452Y831D01*
X2472Y831D02*
X2478Y831D01*
X113Y830D02*
X119Y830D01*
X133Y830D02*
X139Y830D01*
X173Y830D02*
X179Y830D01*
X187Y830D02*
X193Y830D01*
X547Y830D02*
X593Y830D01*
X2425Y830D02*
X2431Y830D01*
X2446Y830D02*
X2452Y830D01*
X2472Y830D02*
X2478Y830D01*
X113Y829D02*
X119Y829D01*
X133Y829D02*
X139Y829D01*
X173Y829D02*
X179Y829D01*
X187Y829D02*
X193Y829D01*
X550Y829D02*
X592Y829D01*
X2425Y829D02*
X2431Y829D01*
X2446Y829D02*
X2452Y829D01*
X2472Y829D02*
X2478Y829D01*
X113Y828D02*
X119Y828D01*
X133Y828D02*
X139Y828D01*
X173Y828D02*
X179Y828D01*
X187Y828D02*
X193Y828D01*
X2425Y828D02*
X2431Y828D01*
X2446Y828D02*
X2452Y828D01*
X2472Y828D02*
X2478Y828D01*
X113Y827D02*
X119Y827D01*
X133Y827D02*
X139Y827D01*
X173Y827D02*
X179Y827D01*
X187Y827D02*
X193Y827D01*
X2425Y827D02*
X2431Y827D01*
X2446Y827D02*
X2452Y827D01*
X2472Y827D02*
X2478Y827D01*
X113Y826D02*
X119Y826D01*
X133Y826D02*
X139Y826D01*
X173Y826D02*
X179Y826D01*
X187Y826D02*
X193Y826D01*
X2425Y826D02*
X2431Y826D01*
X2446Y826D02*
X2452Y826D01*
X2472Y826D02*
X2478Y826D01*
X113Y825D02*
X119Y825D01*
X133Y825D02*
X139Y825D01*
X173Y825D02*
X179Y825D01*
X187Y825D02*
X193Y825D01*
X2425Y825D02*
X2431Y825D01*
X2446Y825D02*
X2452Y825D01*
X2472Y825D02*
X2478Y825D01*
X113Y824D02*
X119Y824D01*
X133Y824D02*
X139Y824D01*
X173Y824D02*
X179Y824D01*
X187Y824D02*
X193Y824D01*
X2425Y824D02*
X2431Y824D01*
X2446Y824D02*
X2452Y824D01*
X2472Y824D02*
X2478Y824D01*
X113Y823D02*
X119Y823D01*
X133Y823D02*
X139Y823D01*
X173Y823D02*
X179Y823D01*
X187Y823D02*
X193Y823D01*
X2425Y823D02*
X2431Y823D01*
X2446Y823D02*
X2452Y823D01*
X2472Y823D02*
X2478Y823D01*
X113Y822D02*
X119Y822D01*
X133Y822D02*
X139Y822D01*
X173Y822D02*
X179Y822D01*
X187Y822D02*
X193Y822D01*
X2425Y822D02*
X2431Y822D01*
X2446Y822D02*
X2452Y822D01*
X2472Y822D02*
X2478Y822D01*
X113Y821D02*
X119Y821D01*
X133Y821D02*
X139Y821D01*
X173Y821D02*
X179Y821D01*
X187Y821D02*
X193Y821D01*
X2425Y821D02*
X2431Y821D01*
X2446Y821D02*
X2452Y821D01*
X2472Y821D02*
X2478Y821D01*
X113Y820D02*
X120Y820D01*
X132Y820D02*
X139Y820D01*
X173Y820D02*
X179Y820D01*
X187Y820D02*
X193Y820D01*
X1215Y820D02*
X1225Y820D01*
X1256Y820D02*
X1259Y820D01*
X2425Y820D02*
X2431Y820D01*
X2446Y820D02*
X2452Y820D01*
X2472Y820D02*
X2478Y820D01*
X113Y819D02*
X139Y819D01*
X162Y819D02*
X193Y819D01*
X1213Y819D02*
X1226Y819D01*
X1255Y819D02*
X1260Y819D01*
X2425Y819D02*
X2431Y819D01*
X2446Y819D02*
X2452Y819D01*
X2472Y819D02*
X2478Y819D01*
X114Y818D02*
X138Y818D01*
X160Y818D02*
X193Y818D01*
X1211Y818D02*
X1228Y818D01*
X1253Y818D02*
X1261Y818D01*
X2425Y818D02*
X2431Y818D01*
X2446Y818D02*
X2452Y818D01*
X2472Y818D02*
X2478Y818D01*
X114Y817D02*
X138Y817D01*
X160Y817D02*
X193Y817D01*
X1210Y817D02*
X1229Y817D01*
X1251Y817D02*
X1261Y817D01*
X2425Y817D02*
X2432Y817D01*
X2446Y817D02*
X2452Y817D01*
X2472Y817D02*
X2478Y817D01*
X115Y816D02*
X137Y816D01*
X159Y816D02*
X193Y816D01*
X1210Y816D02*
X1230Y816D01*
X1250Y816D02*
X1261Y816D01*
X2425Y816D02*
X2432Y816D01*
X2445Y816D02*
X2452Y816D01*
X2472Y816D02*
X2478Y816D01*
X116Y815D02*
X136Y815D01*
X159Y815D02*
X193Y815D01*
X1209Y815D02*
X1230Y815D01*
X1248Y815D02*
X1260Y815D01*
X2426Y815D02*
X2433Y815D01*
X2444Y815D02*
X2451Y815D01*
X2472Y815D02*
X2478Y815D01*
X117Y814D02*
X135Y814D01*
X160Y814D02*
X192Y814D01*
X1209Y814D02*
X1231Y814D01*
X1246Y814D02*
X1259Y814D01*
X2426Y814D02*
X2451Y814D01*
X2472Y814D02*
X2504Y814D01*
X119Y813D02*
X133Y813D01*
X161Y813D02*
X191Y813D01*
X543Y813D02*
X545Y813D01*
X590Y813D02*
X592Y813D01*
X1208Y813D02*
X1215Y813D01*
X1224Y813D02*
X1231Y813D01*
X1244Y813D02*
X1257Y813D01*
X2427Y813D02*
X2451Y813D01*
X2472Y813D02*
X2505Y813D01*
X542Y812D02*
X546Y812D01*
X589Y812D02*
X593Y812D01*
X1208Y812D02*
X1214Y812D01*
X1225Y812D02*
X1231Y812D01*
X1243Y812D02*
X1256Y812D01*
X2427Y812D02*
X2450Y812D01*
X2472Y812D02*
X2505Y812D01*
X541Y811D02*
X547Y811D01*
X588Y811D02*
X594Y811D01*
X1208Y811D02*
X1214Y811D01*
X1225Y811D02*
X1231Y811D01*
X1241Y811D02*
X1254Y811D01*
X2428Y811D02*
X2449Y811D01*
X2472Y811D02*
X2505Y811D01*
X541Y810D02*
X547Y810D01*
X588Y810D02*
X594Y810D01*
X1208Y810D02*
X1214Y810D01*
X1225Y810D02*
X1232Y810D01*
X1239Y810D02*
X1252Y810D01*
X2429Y810D02*
X2448Y810D01*
X2472Y810D02*
X2505Y810D01*
X541Y809D02*
X547Y809D01*
X588Y809D02*
X594Y809D01*
X1208Y809D02*
X1214Y809D01*
X1225Y809D02*
X1232Y809D01*
X1238Y809D02*
X1251Y809D01*
X2431Y809D02*
X2446Y809D01*
X2472Y809D02*
X2505Y809D01*
X541Y808D02*
X547Y808D01*
X588Y808D02*
X594Y808D01*
X1208Y808D02*
X1214Y808D01*
X1225Y808D02*
X1232Y808D01*
X1236Y808D02*
X1249Y808D01*
X2433Y808D02*
X2444Y808D01*
X2472Y808D02*
X2503Y808D01*
X541Y807D02*
X547Y807D01*
X588Y807D02*
X594Y807D01*
X1208Y807D02*
X1214Y807D01*
X1225Y807D02*
X1232Y807D01*
X1234Y807D02*
X1247Y807D01*
X541Y806D02*
X547Y806D01*
X588Y806D02*
X594Y806D01*
X1208Y806D02*
X1214Y806D01*
X1225Y806D02*
X1245Y806D01*
X541Y805D02*
X547Y805D01*
X588Y805D02*
X594Y805D01*
X1208Y805D02*
X1214Y805D01*
X1225Y805D02*
X1244Y805D01*
X541Y804D02*
X547Y804D01*
X588Y804D02*
X594Y804D01*
X1208Y804D02*
X1214Y804D01*
X1225Y804D02*
X1242Y804D01*
X541Y803D02*
X547Y803D01*
X588Y803D02*
X594Y803D01*
X1208Y803D02*
X1214Y803D01*
X1225Y803D02*
X1240Y803D01*
X541Y802D02*
X547Y802D01*
X588Y802D02*
X594Y802D01*
X1208Y802D02*
X1214Y802D01*
X1225Y802D02*
X1239Y802D01*
X541Y801D02*
X547Y801D01*
X588Y801D02*
X594Y801D01*
X1208Y801D02*
X1214Y801D01*
X1225Y801D02*
X1237Y801D01*
X541Y800D02*
X547Y800D01*
X588Y800D02*
X594Y800D01*
X1208Y800D02*
X1214Y800D01*
X1225Y800D02*
X1235Y800D01*
X541Y799D02*
X594Y799D01*
X1208Y799D02*
X1214Y799D01*
X1225Y799D02*
X1233Y799D01*
X541Y798D02*
X594Y798D01*
X1208Y798D02*
X1214Y798D01*
X1225Y798D02*
X1232Y798D01*
X541Y797D02*
X594Y797D01*
X1208Y797D02*
X1214Y797D01*
X1225Y797D02*
X1232Y797D01*
X541Y796D02*
X594Y796D01*
X1208Y796D02*
X1214Y796D01*
X1225Y796D02*
X1232Y796D01*
X541Y795D02*
X594Y795D01*
X1208Y795D02*
X1214Y795D01*
X1225Y795D02*
X1232Y795D01*
X541Y794D02*
X594Y794D01*
X1208Y794D02*
X1214Y794D01*
X1225Y794D02*
X1232Y794D01*
X541Y793D02*
X594Y793D01*
X1208Y793D02*
X1258Y793D01*
X541Y792D02*
X547Y792D01*
X1208Y792D02*
X1260Y792D01*
X541Y791D02*
X547Y791D01*
X1208Y791D02*
X1261Y791D01*
X541Y790D02*
X547Y790D01*
X1208Y790D02*
X1261Y790D01*
X541Y789D02*
X547Y789D01*
X1208Y789D02*
X1261Y789D01*
X541Y788D02*
X547Y788D01*
X1208Y788D02*
X1261Y788D01*
X541Y787D02*
X547Y787D01*
X1208Y787D02*
X1260Y787D01*
X541Y786D02*
X547Y786D01*
X541Y785D02*
X563Y785D01*
X541Y784D02*
X564Y784D01*
X541Y783D02*
X565Y783D01*
X541Y782D02*
X565Y782D01*
X541Y781D02*
X564Y781D01*
X542Y780D02*
X564Y780D01*
X544Y779D02*
X562Y779D01*
X459Y666D02*
X460Y666D01*
X426Y665D02*
X429Y665D01*
X457Y665D02*
X462Y665D01*
X425Y664D02*
X430Y664D01*
X457Y664D02*
X463Y664D01*
X424Y663D02*
X431Y663D01*
X456Y663D02*
X464Y663D01*
X423Y662D02*
X431Y662D01*
X456Y662D02*
X464Y662D01*
X423Y661D02*
X431Y661D01*
X456Y661D02*
X465Y661D01*
X422Y660D02*
X431Y660D01*
X457Y660D02*
X466Y660D01*
X421Y659D02*
X430Y659D01*
X458Y659D02*
X467Y659D01*
X420Y658D02*
X429Y658D01*
X458Y658D02*
X467Y658D01*
X420Y657D02*
X429Y657D01*
X459Y657D02*
X468Y657D01*
X419Y656D02*
X428Y656D01*
X460Y656D02*
X469Y656D01*
X418Y655D02*
X427Y655D01*
X461Y655D02*
X470Y655D01*
X418Y654D02*
X426Y654D01*
X462Y654D02*
X470Y654D01*
X417Y653D02*
X425Y653D01*
X462Y653D02*
X471Y653D01*
X416Y652D02*
X425Y652D01*
X463Y652D02*
X471Y652D01*
X416Y651D02*
X424Y651D01*
X464Y651D02*
X472Y651D01*
X415Y650D02*
X423Y650D01*
X464Y650D02*
X472Y650D01*
X415Y649D02*
X423Y649D01*
X465Y649D02*
X473Y649D01*
X414Y648D02*
X422Y648D01*
X466Y648D02*
X474Y648D01*
X414Y647D02*
X422Y647D01*
X466Y647D02*
X474Y647D01*
X413Y646D02*
X421Y646D01*
X467Y646D02*
X475Y646D01*
X413Y645D02*
X421Y645D01*
X467Y645D02*
X475Y645D01*
X412Y644D02*
X420Y644D01*
X468Y644D02*
X475Y644D01*
X412Y643D02*
X419Y643D01*
X468Y643D02*
X476Y643D01*
X411Y642D02*
X419Y642D01*
X469Y642D02*
X476Y642D01*
X411Y641D02*
X418Y641D01*
X469Y641D02*
X477Y641D01*
X526Y641D02*
X542Y641D01*
X563Y641D02*
X581Y641D01*
X411Y640D02*
X418Y640D01*
X470Y640D02*
X477Y640D01*
X524Y640D02*
X544Y640D01*
X562Y640D02*
X581Y640D01*
X410Y639D02*
X418Y639D01*
X470Y639D02*
X477Y639D01*
X522Y639D02*
X544Y639D01*
X561Y639D02*
X581Y639D01*
X410Y638D02*
X417Y638D01*
X471Y638D02*
X478Y638D01*
X521Y638D02*
X544Y638D01*
X561Y638D02*
X581Y638D01*
X410Y637D02*
X417Y637D01*
X471Y637D02*
X478Y637D01*
X520Y637D02*
X544Y637D01*
X561Y637D02*
X581Y637D01*
X409Y636D02*
X416Y636D01*
X471Y636D02*
X478Y636D01*
X520Y636D02*
X544Y636D01*
X561Y636D02*
X581Y636D01*
X409Y635D02*
X416Y635D01*
X472Y635D02*
X479Y635D01*
X519Y635D02*
X543Y635D01*
X562Y635D02*
X581Y635D01*
X409Y634D02*
X416Y634D01*
X472Y634D02*
X479Y634D01*
X519Y634D02*
X526Y634D01*
X575Y634D02*
X581Y634D01*
X408Y633D02*
X415Y633D01*
X472Y633D02*
X479Y633D01*
X518Y633D02*
X525Y633D01*
X575Y633D02*
X581Y633D01*
X408Y632D02*
X415Y632D01*
X473Y632D02*
X480Y632D01*
X518Y632D02*
X525Y632D01*
X575Y632D02*
X581Y632D01*
X408Y631D02*
X415Y631D01*
X473Y631D02*
X480Y631D01*
X517Y631D02*
X524Y631D01*
X575Y631D02*
X581Y631D01*
X408Y630D02*
X415Y630D01*
X473Y630D02*
X480Y630D01*
X517Y630D02*
X524Y630D01*
X575Y630D02*
X581Y630D01*
X408Y629D02*
X414Y629D01*
X473Y629D02*
X480Y629D01*
X516Y629D02*
X523Y629D01*
X575Y629D02*
X581Y629D01*
X407Y628D02*
X414Y628D01*
X474Y628D02*
X480Y628D01*
X516Y628D02*
X523Y628D01*
X575Y628D02*
X581Y628D01*
X407Y627D02*
X414Y627D01*
X474Y627D02*
X481Y627D01*
X515Y627D02*
X522Y627D01*
X575Y627D02*
X581Y627D01*
X407Y626D02*
X414Y626D01*
X474Y626D02*
X481Y626D01*
X515Y626D02*
X522Y626D01*
X575Y626D02*
X581Y626D01*
X407Y625D02*
X413Y625D01*
X474Y625D02*
X481Y625D01*
X514Y625D02*
X521Y625D01*
X575Y625D02*
X581Y625D01*
X407Y624D02*
X413Y624D01*
X475Y624D02*
X481Y624D01*
X514Y624D02*
X521Y624D01*
X575Y624D02*
X581Y624D01*
X406Y623D02*
X413Y623D01*
X475Y623D02*
X481Y623D01*
X513Y623D02*
X520Y623D01*
X575Y623D02*
X581Y623D01*
X406Y622D02*
X413Y622D01*
X475Y622D02*
X481Y622D01*
X513Y622D02*
X520Y622D01*
X575Y622D02*
X581Y622D01*
X406Y621D02*
X413Y621D01*
X475Y621D02*
X482Y621D01*
X512Y621D02*
X519Y621D01*
X575Y621D02*
X581Y621D01*
X406Y620D02*
X413Y620D01*
X475Y620D02*
X482Y620D01*
X512Y620D02*
X519Y620D01*
X575Y620D02*
X581Y620D01*
X406Y619D02*
X413Y619D01*
X475Y619D02*
X482Y619D01*
X512Y619D02*
X518Y619D01*
X575Y619D02*
X581Y619D01*
X406Y618D02*
X412Y618D01*
X475Y618D02*
X482Y618D01*
X511Y618D02*
X518Y618D01*
X575Y618D02*
X581Y618D01*
X406Y617D02*
X412Y617D01*
X475Y617D02*
X482Y617D01*
X511Y617D02*
X517Y617D01*
X575Y617D02*
X581Y617D01*
X406Y616D02*
X412Y616D01*
X475Y616D02*
X482Y616D01*
X511Y616D02*
X517Y616D01*
X575Y616D02*
X581Y616D01*
X406Y615D02*
X412Y615D01*
X475Y615D02*
X482Y615D01*
X511Y615D02*
X517Y615D01*
X575Y615D02*
X581Y615D01*
X406Y614D02*
X412Y614D01*
X476Y614D02*
X482Y614D01*
X511Y614D02*
X517Y614D01*
X575Y614D02*
X581Y614D01*
X406Y613D02*
X412Y613D01*
X476Y613D02*
X482Y613D01*
X511Y613D02*
X517Y613D01*
X575Y613D02*
X581Y613D01*
X406Y612D02*
X412Y612D01*
X476Y612D02*
X482Y612D01*
X511Y612D02*
X517Y612D01*
X575Y612D02*
X581Y612D01*
X406Y611D02*
X412Y611D01*
X476Y611D02*
X482Y611D01*
X511Y611D02*
X518Y611D01*
X575Y611D02*
X581Y611D01*
X590Y611D02*
X593Y611D01*
X406Y610D02*
X412Y610D01*
X476Y610D02*
X482Y610D01*
X511Y610D02*
X518Y610D01*
X575Y610D02*
X581Y610D01*
X589Y610D02*
X594Y610D01*
X406Y609D02*
X412Y609D01*
X475Y609D02*
X482Y609D01*
X512Y609D02*
X518Y609D01*
X575Y609D02*
X581Y609D01*
X588Y609D02*
X594Y609D01*
X406Y608D02*
X412Y608D01*
X475Y608D02*
X482Y608D01*
X512Y608D02*
X519Y608D01*
X575Y608D02*
X581Y608D01*
X588Y608D02*
X594Y608D01*
X406Y607D02*
X412Y607D01*
X475Y607D02*
X482Y607D01*
X513Y607D02*
X519Y607D01*
X575Y607D02*
X581Y607D01*
X588Y607D02*
X594Y607D01*
X406Y606D02*
X412Y606D01*
X475Y606D02*
X482Y606D01*
X513Y606D02*
X520Y606D01*
X575Y606D02*
X581Y606D01*
X588Y606D02*
X594Y606D01*
X406Y605D02*
X412Y605D01*
X475Y605D02*
X482Y605D01*
X514Y605D02*
X520Y605D01*
X575Y605D02*
X581Y605D01*
X588Y605D02*
X594Y605D01*
X406Y604D02*
X413Y604D01*
X475Y604D02*
X482Y604D01*
X514Y604D02*
X521Y604D01*
X575Y604D02*
X581Y604D01*
X588Y604D02*
X594Y604D01*
X406Y603D02*
X413Y603D01*
X475Y603D02*
X482Y603D01*
X515Y603D02*
X521Y603D01*
X575Y603D02*
X581Y603D01*
X588Y603D02*
X594Y603D01*
X406Y602D02*
X413Y602D01*
X475Y602D02*
X481Y602D01*
X515Y602D02*
X522Y602D01*
X575Y602D02*
X581Y602D01*
X588Y602D02*
X594Y602D01*
X406Y601D02*
X413Y601D01*
X475Y601D02*
X481Y601D01*
X516Y601D02*
X522Y601D01*
X575Y601D02*
X581Y601D01*
X588Y601D02*
X594Y601D01*
X407Y600D02*
X413Y600D01*
X475Y600D02*
X481Y600D01*
X516Y600D02*
X523Y600D01*
X575Y600D02*
X581Y600D01*
X588Y600D02*
X594Y600D01*
X407Y599D02*
X413Y599D01*
X474Y599D02*
X481Y599D01*
X517Y599D02*
X523Y599D01*
X575Y599D02*
X581Y599D01*
X588Y599D02*
X594Y599D01*
X407Y598D02*
X414Y598D01*
X474Y598D02*
X481Y598D01*
X517Y598D02*
X524Y598D01*
X575Y598D02*
X581Y598D01*
X588Y598D02*
X594Y598D01*
X407Y597D02*
X414Y597D01*
X474Y597D02*
X481Y597D01*
X518Y597D02*
X525Y597D01*
X575Y597D02*
X581Y597D01*
X588Y597D02*
X594Y597D01*
X407Y596D02*
X414Y596D01*
X474Y596D02*
X480Y596D01*
X518Y596D02*
X525Y596D01*
X575Y596D02*
X581Y596D01*
X588Y596D02*
X594Y596D01*
X407Y595D02*
X414Y595D01*
X473Y595D02*
X480Y595D01*
X519Y595D02*
X526Y595D01*
X575Y595D02*
X581Y595D01*
X588Y595D02*
X594Y595D01*
X408Y594D02*
X415Y594D01*
X473Y594D02*
X480Y594D01*
X519Y594D02*
X542Y594D01*
X563Y594D02*
X594Y594D01*
X408Y593D02*
X415Y593D01*
X473Y593D02*
X480Y593D01*
X520Y593D02*
X544Y593D01*
X562Y593D02*
X594Y593D01*
X408Y592D02*
X415Y592D01*
X473Y592D02*
X480Y592D01*
X520Y592D02*
X544Y592D01*
X561Y592D02*
X594Y592D01*
X408Y591D02*
X415Y591D01*
X472Y591D02*
X479Y591D01*
X521Y591D02*
X544Y591D01*
X561Y591D02*
X594Y591D01*
X409Y590D02*
X416Y590D01*
X472Y590D02*
X479Y590D01*
X522Y590D02*
X544Y590D01*
X561Y590D02*
X594Y590D01*
X409Y589D02*
X416Y589D01*
X472Y589D02*
X479Y589D01*
X523Y589D02*
X544Y589D01*
X561Y589D02*
X594Y589D01*
X409Y588D02*
X416Y588D01*
X471Y588D02*
X478Y588D01*
X525Y588D02*
X543Y588D01*
X562Y588D02*
X593Y588D01*
X410Y587D02*
X417Y587D01*
X471Y587D02*
X478Y587D01*
X410Y586D02*
X417Y586D01*
X471Y586D02*
X478Y586D01*
X410Y585D02*
X418Y585D01*
X470Y585D02*
X477Y585D01*
X411Y584D02*
X418Y584D01*
X470Y584D02*
X477Y584D01*
X411Y583D02*
X419Y583D01*
X469Y583D02*
X477Y583D01*
X411Y582D02*
X419Y582D01*
X469Y582D02*
X476Y582D01*
X412Y581D02*
X419Y581D01*
X468Y581D02*
X476Y581D01*
X412Y580D02*
X420Y580D01*
X468Y580D02*
X475Y580D01*
X413Y579D02*
X420Y579D01*
X467Y579D02*
X475Y579D01*
X413Y578D02*
X421Y578D01*
X467Y578D02*
X475Y578D01*
X414Y577D02*
X422Y577D01*
X466Y577D02*
X474Y577D01*
X414Y576D02*
X422Y576D01*
X466Y576D02*
X474Y576D01*
X415Y575D02*
X423Y575D01*
X465Y575D02*
X473Y575D01*
X415Y574D02*
X423Y574D01*
X464Y574D02*
X472Y574D01*
X416Y573D02*
X424Y573D01*
X464Y573D02*
X472Y573D01*
X416Y572D02*
X425Y572D01*
X463Y572D02*
X471Y572D01*
X417Y571D02*
X425Y571D01*
X462Y571D02*
X471Y571D01*
X418Y570D02*
X426Y570D01*
X462Y570D02*
X470Y570D01*
X418Y569D02*
X427Y569D01*
X461Y569D02*
X469Y569D01*
X419Y568D02*
X428Y568D01*
X460Y568D02*
X469Y568D01*
X420Y567D02*
X429Y567D01*
X459Y567D02*
X468Y567D01*
X420Y566D02*
X429Y566D01*
X458Y566D02*
X468Y566D01*
X421Y565D02*
X430Y565D01*
X458Y565D02*
X467Y565D01*
X422Y564D02*
X431Y564D01*
X457Y564D02*
X466Y564D01*
X423Y563D02*
X431Y563D01*
X457Y563D02*
X465Y563D01*
X423Y562D02*
X432Y562D01*
X457Y562D02*
X464Y562D01*
X424Y561D02*
X431Y561D01*
X457Y561D02*
X464Y561D01*
X425Y560D02*
X431Y560D01*
X457Y560D02*
X463Y560D01*
X426Y559D02*
X430Y559D01*
X458Y559D02*
X462Y559D01*
X428Y558D02*
X429Y558D01*
X1722Y447D02*
X1726Y447D01*
X1962Y447D02*
X1966Y447D01*
X1720Y446D02*
X1727Y446D01*
X1960Y446D02*
X1967Y446D01*
X1719Y445D02*
X1728Y445D01*
X1959Y445D02*
X1968Y445D01*
X1719Y444D02*
X1728Y444D01*
X1959Y444D02*
X1968Y444D01*
X1719Y443D02*
X1729Y443D01*
X1959Y443D02*
X1969Y443D01*
X1719Y442D02*
X1729Y442D01*
X1959Y442D02*
X1969Y442D01*
X1719Y441D02*
X1729Y441D01*
X1959Y441D02*
X1969Y441D01*
X1719Y440D02*
X1729Y440D01*
X1959Y440D02*
X1969Y440D01*
X1719Y439D02*
X1729Y439D01*
X1959Y439D02*
X1969Y439D01*
X1719Y438D02*
X1729Y438D01*
X1959Y438D02*
X1969Y438D01*
X1719Y437D02*
X1729Y437D01*
X1959Y437D02*
X1969Y437D01*
X1719Y436D02*
X1729Y436D01*
X1959Y436D02*
X1969Y436D01*
X1719Y435D02*
X1729Y435D01*
X1959Y435D02*
X1969Y435D01*
X1719Y434D02*
X1729Y434D01*
X1959Y434D02*
X1969Y434D01*
X1719Y433D02*
X1729Y433D01*
X1959Y433D02*
X1969Y433D01*
X1719Y432D02*
X1729Y432D01*
X1959Y432D02*
X1969Y432D01*
X1719Y431D02*
X1729Y431D01*
X1959Y431D02*
X1969Y431D01*
X1719Y430D02*
X1729Y430D01*
X1959Y430D02*
X1969Y430D01*
X1719Y429D02*
X1729Y429D01*
X1959Y429D02*
X1969Y429D01*
X1719Y428D02*
X1729Y428D01*
X1959Y428D02*
X1969Y428D01*
X1719Y427D02*
X1729Y427D01*
X1959Y427D02*
X1969Y427D01*
X1719Y426D02*
X1729Y426D01*
X1959Y426D02*
X1969Y426D01*
X1719Y425D02*
X1729Y425D01*
X1959Y425D02*
X1969Y425D01*
X1719Y424D02*
X1729Y424D01*
X1959Y424D02*
X1969Y424D01*
X1719Y423D02*
X1729Y423D01*
X1959Y423D02*
X1969Y423D01*
X1719Y422D02*
X1729Y422D01*
X1959Y422D02*
X1969Y422D01*
X1719Y421D02*
X1729Y421D01*
X1959Y421D02*
X1969Y421D01*
X1719Y420D02*
X1729Y420D01*
X1959Y420D02*
X1969Y420D01*
X1719Y419D02*
X1729Y419D01*
X1959Y419D02*
X1969Y419D01*
X1719Y418D02*
X1729Y418D01*
X1959Y418D02*
X1969Y418D01*
X1719Y417D02*
X1729Y417D01*
X1959Y417D02*
X1969Y417D01*
X1719Y416D02*
X1729Y416D01*
X1959Y416D02*
X1969Y416D01*
X1719Y415D02*
X1729Y415D01*
X1959Y415D02*
X1969Y415D01*
X1719Y414D02*
X1729Y414D01*
X1959Y414D02*
X1969Y414D01*
X1719Y413D02*
X1729Y413D01*
X1959Y413D02*
X1969Y413D01*
X1719Y412D02*
X1729Y412D01*
X1959Y412D02*
X1969Y412D01*
X1719Y411D02*
X1729Y411D01*
X1959Y411D02*
X1969Y411D01*
X1719Y410D02*
X1729Y410D01*
X1959Y410D02*
X1969Y410D01*
X1719Y409D02*
X1729Y409D01*
X1959Y409D02*
X1969Y409D01*
X1719Y408D02*
X1729Y408D01*
X1959Y408D02*
X1969Y408D01*
X1719Y407D02*
X1729Y407D01*
X1959Y407D02*
X1969Y407D01*
X1719Y406D02*
X1729Y406D01*
X1959Y406D02*
X1969Y406D01*
X1719Y405D02*
X1729Y405D01*
X1959Y405D02*
X1969Y405D01*
X1719Y404D02*
X1729Y404D01*
X1959Y404D02*
X1969Y404D01*
X1719Y403D02*
X1729Y403D01*
X1959Y403D02*
X1969Y403D01*
X1719Y402D02*
X1729Y402D01*
X1959Y402D02*
X1969Y402D01*
X1719Y401D02*
X1729Y401D01*
X1959Y401D02*
X1969Y401D01*
X1719Y400D02*
X1729Y400D01*
X1959Y400D02*
X1969Y400D01*
X1719Y399D02*
X1729Y399D01*
X1959Y399D02*
X1969Y399D01*
X1719Y398D02*
X1729Y398D01*
X1959Y398D02*
X1969Y398D01*
X1719Y397D02*
X1729Y397D01*
X1959Y397D02*
X1969Y397D01*
X1719Y396D02*
X1729Y396D01*
X1959Y396D02*
X1969Y396D01*
X1719Y395D02*
X1729Y395D01*
X1959Y395D02*
X1969Y395D01*
X1719Y394D02*
X1729Y394D01*
X1959Y394D02*
X1969Y394D01*
X1719Y393D02*
X1729Y393D01*
X1959Y393D02*
X1969Y393D01*
X1719Y392D02*
X1729Y392D01*
X1959Y392D02*
X1969Y392D01*
X1719Y391D02*
X1729Y391D01*
X1959Y391D02*
X1969Y391D01*
X1719Y390D02*
X1729Y390D01*
X1959Y390D02*
X1969Y390D01*
X1719Y389D02*
X1729Y389D01*
X1959Y389D02*
X1969Y389D01*
X1719Y388D02*
X1729Y388D01*
X1959Y388D02*
X1969Y388D01*
X1719Y387D02*
X1729Y387D01*
X1959Y387D02*
X1969Y387D01*
X1719Y386D02*
X1729Y386D01*
X1959Y386D02*
X1969Y386D01*
X1719Y385D02*
X1729Y385D01*
X1959Y385D02*
X1969Y385D01*
X1719Y384D02*
X1729Y384D01*
X1959Y384D02*
X1969Y384D01*
X1719Y383D02*
X1729Y383D01*
X1959Y383D02*
X1969Y383D01*
X1719Y382D02*
X1729Y382D01*
X1959Y382D02*
X1969Y382D01*
X1719Y381D02*
X1729Y381D01*
X1959Y381D02*
X1969Y381D01*
X1719Y380D02*
X1728Y380D01*
X1959Y380D02*
X1968Y380D01*
X1719Y379D02*
X1728Y379D01*
X1959Y379D02*
X1968Y379D01*
X1720Y378D02*
X1727Y378D01*
X1960Y378D02*
X1967Y378D01*
X1722Y377D02*
X1725Y377D01*
X1962Y377D02*
X1965Y377D01*
X797Y345D02*
X829Y345D01*
X847Y345D02*
X850Y345D01*
X874Y345D02*
X878Y345D01*
X796Y344D02*
X829Y344D01*
X846Y344D02*
X851Y344D01*
X873Y344D02*
X879Y344D01*
X796Y343D02*
X829Y343D01*
X846Y343D02*
X852Y343D01*
X873Y343D02*
X879Y343D01*
X795Y342D02*
X829Y342D01*
X846Y342D02*
X852Y342D01*
X873Y342D02*
X879Y342D01*
X796Y341D02*
X829Y341D01*
X846Y341D02*
X853Y341D01*
X873Y341D02*
X879Y341D01*
X796Y340D02*
X829Y340D01*
X846Y340D02*
X853Y340D01*
X873Y340D02*
X879Y340D01*
X798Y339D02*
X829Y339D01*
X847Y339D02*
X854Y339D01*
X873Y339D02*
X879Y339D01*
X823Y338D02*
X829Y338D01*
X847Y338D02*
X855Y338D01*
X873Y338D02*
X879Y338D01*
X823Y337D02*
X829Y337D01*
X848Y337D02*
X855Y337D01*
X873Y337D02*
X879Y337D01*
X823Y336D02*
X829Y336D01*
X849Y336D02*
X856Y336D01*
X873Y336D02*
X879Y336D01*
X823Y335D02*
X829Y335D01*
X849Y335D02*
X856Y335D01*
X873Y335D02*
X879Y335D01*
X823Y334D02*
X829Y334D01*
X850Y334D02*
X857Y334D01*
X873Y334D02*
X879Y334D01*
X823Y333D02*
X829Y333D01*
X850Y333D02*
X857Y333D01*
X873Y333D02*
X879Y333D01*
X823Y332D02*
X829Y332D01*
X851Y332D02*
X858Y332D01*
X873Y332D02*
X879Y332D01*
X823Y331D02*
X829Y331D01*
X851Y331D02*
X859Y331D01*
X873Y331D02*
X879Y331D01*
X823Y330D02*
X829Y330D01*
X852Y330D02*
X859Y330D01*
X873Y330D02*
X879Y330D01*
X823Y329D02*
X829Y329D01*
X853Y329D02*
X860Y329D01*
X873Y329D02*
X879Y329D01*
X823Y328D02*
X829Y328D01*
X853Y328D02*
X860Y328D01*
X873Y328D02*
X879Y328D01*
X823Y327D02*
X829Y327D01*
X854Y327D02*
X861Y327D01*
X873Y327D02*
X879Y327D01*
X823Y326D02*
X829Y326D01*
X854Y326D02*
X862Y326D01*
X873Y326D02*
X879Y326D01*
X823Y325D02*
X829Y325D01*
X855Y325D02*
X862Y325D01*
X873Y325D02*
X879Y325D01*
X823Y324D02*
X829Y324D01*
X856Y324D02*
X863Y324D01*
X873Y324D02*
X879Y324D01*
X823Y323D02*
X829Y323D01*
X856Y323D02*
X863Y323D01*
X873Y323D02*
X879Y323D01*
X801Y322D02*
X829Y322D01*
X857Y322D02*
X864Y322D01*
X873Y322D02*
X879Y322D01*
X799Y321D02*
X829Y321D01*
X857Y321D02*
X865Y321D01*
X873Y321D02*
X879Y321D01*
X797Y320D02*
X829Y320D01*
X858Y320D02*
X865Y320D01*
X873Y320D02*
X879Y320D01*
X797Y319D02*
X828Y319D01*
X858Y319D02*
X866Y319D01*
X873Y319D02*
X879Y319D01*
X796Y318D02*
X827Y318D01*
X859Y318D02*
X866Y318D01*
X873Y318D02*
X879Y318D01*
X796Y317D02*
X827Y317D01*
X860Y317D02*
X867Y317D01*
X873Y317D02*
X879Y317D01*
X796Y316D02*
X825Y316D01*
X853Y316D02*
X879Y316D01*
X795Y315D02*
X802Y315D01*
X851Y315D02*
X879Y315D01*
X795Y314D02*
X801Y314D01*
X849Y314D02*
X879Y314D01*
X795Y313D02*
X801Y313D01*
X848Y313D02*
X879Y313D01*
X795Y312D02*
X801Y312D01*
X848Y312D02*
X879Y312D01*
X795Y311D02*
X801Y311D01*
X847Y311D02*
X879Y311D01*
X795Y310D02*
X801Y310D01*
X846Y310D02*
X879Y310D01*
X795Y309D02*
X801Y309D01*
X846Y309D02*
X854Y309D01*
X873Y309D02*
X879Y309D01*
X795Y308D02*
X801Y308D01*
X846Y308D02*
X852Y308D01*
X873Y308D02*
X879Y308D01*
X795Y307D02*
X801Y307D01*
X846Y307D02*
X852Y307D01*
X873Y307D02*
X879Y307D01*
X795Y306D02*
X801Y306D01*
X845Y306D02*
X851Y306D01*
X873Y306D02*
X879Y306D01*
X795Y305D02*
X801Y305D01*
X845Y305D02*
X851Y305D01*
X873Y305D02*
X879Y305D01*
X795Y304D02*
X801Y304D01*
X845Y304D02*
X851Y304D01*
X873Y304D02*
X879Y304D01*
X795Y303D02*
X801Y303D01*
X845Y303D02*
X851Y303D01*
X873Y303D02*
X879Y303D01*
X795Y302D02*
X801Y302D01*
X845Y302D02*
X851Y302D01*
X873Y302D02*
X879Y302D01*
X795Y301D02*
X801Y301D01*
X846Y301D02*
X852Y301D01*
X873Y301D02*
X879Y301D01*
X795Y300D02*
X801Y300D01*
X846Y300D02*
X852Y300D01*
X873Y300D02*
X879Y300D01*
X795Y299D02*
X802Y299D01*
X846Y299D02*
X854Y299D01*
X873Y299D02*
X879Y299D01*
X795Y298D02*
X827Y298D01*
X846Y298D02*
X879Y298D01*
X796Y297D02*
X828Y297D01*
X847Y297D02*
X879Y297D01*
X796Y296D02*
X829Y296D01*
X848Y296D02*
X879Y296D01*
X797Y295D02*
X829Y295D01*
X848Y295D02*
X879Y295D01*
X797Y294D02*
X829Y294D01*
X850Y294D02*
X879Y294D01*
X798Y293D02*
X828Y293D01*
X851Y293D02*
X879Y293D01*
X800Y292D02*
X827Y292D01*
X853Y292D02*
X879Y292D01*
D02*
G04 End of Silk1*
M02*