<?xml version='1.0' encoding='UTF-8' standalone='no'?>
<!-- Created with Fritzing (http://www.fritzing.org/) -->
<svg xmlns="http://www.w3.org/2000/svg" version="1.2" x="0in" baseProfile="tiny"  width="2.61448in" xmlns:svg="http://www.w3.org/2000/svg" viewBox="0 0 188.243 81.2239" height="1.12811in" y="0in">
 <g partID="57690">
  <g  id="board">
   <rect x="0.288"  width="187.667" fill="none" fill-opacity="0.5" stroke="black" stroke-width="0.5" id="boardoutline" height="80.6479" y="0.288"/>
  </g>
 </g>
 <g partID="854896870">
  <g transform="translate(2.88,2.88)">
   <g  id="groundplane">
    <polygon  points="0,0,0,15.84,51.552,15.84,51.552,15.984,52.128,15.984,52.128,16.128,53.568,16.128,53.568,13.104,53.712,13.104,53.712,12.24,53.856,12.24,53.856,11.664,54,11.664,54,11.088,54.144,11.088,54.144,10.656,54.288,10.656,54.288,10.368,54.432,10.368,54.432,9.936,54.576,9.936,54.576,9.648,54.72,9.648,54.72,9.36,54.864,9.36,54.864,9.072,55.008,9.072,55.008,8.784,55.152,8.784,55.152,8.64,55.296,8.64,55.296,8.352,55.44,8.352,55.44,8.208,55.584,8.208,55.584,7.92,55.728,7.92,55.728,7.776,55.872,7.776,55.872,7.632,56.016,7.632,56.016,7.344,56.16,7.344,56.16,7.2,56.304,7.2,56.304,7.056,56.448,7.056,56.448,6.912,56.592,6.912,56.592,6.768,56.736,6.768,56.736,6.624,56.88,6.624,56.88,6.48,57.024,6.48,57.024,6.336,57.168,6.336,57.168,6.192,57.312,6.192,57.312,6.048,57.456,6.048,57.456,5.904,57.6,5.904,57.6,5.76,57.744,5.76,57.744,5.616,57.888,5.616,57.888,5.472,58.176,5.472,58.176,5.328,58.32,5.328,58.32,5.184,58.464,5.184,58.464,5.04,58.752,5.04,58.752,4.896,58.896,4.896,58.896,4.752,59.184,4.752,59.184,4.608,59.328,4.608,59.328,4.464,59.616,4.464,59.616,4.32,59.904,4.32,59.904,4.176,60.048,4.176,60.048,4.032,60.336,4.032,60.336,3.888,60.624,3.888,60.624,3.744,60.912,3.744,60.912,3.6,61.2,3.6,61.2,3.456,61.488,3.456,61.488,3.312,61.92,3.312,61.92,3.168,62.208,3.168,62.208,3.024,62.496,3.024,62.496,2.88,62.928,2.88,62.928,2.736,63.36,2.736,63.36,2.592,63.792,2.592,63.792,2.448,64.224,2.448,64.224,2.304,64.8,2.304,64.8,2.16,65.232,2.16,65.232,2.016,65.808,2.016,65.808,1.872,66.528,1.872,66.528,1.728,67.248,1.728,67.248,1.584,67.968,1.584,67.968,1.44,68.832,1.44,68.832,0" fill="black" stroke="none" stroke-width="0"/>
    <polygon  points="0,15.84,0,22.176,8.64,22.176,8.64,22.32,9.216,22.32,9.216,22.464,9.504,22.464,9.504,22.608,9.792,22.608,9.792,22.752,10.08,22.752,10.08,22.896,10.368,22.896,10.368,23.04,10.512,23.04,10.512,23.184,29.952,23.184,29.952,23.328,30.528,23.328,30.528,23.472,30.816,23.472,30.816,23.616,31.104,23.616,31.104,23.76,31.248,23.76,31.248,23.904,31.536,23.904,31.536,24.048,31.68,24.048,31.68,24.192,31.824,24.192,31.824,24.336,32.544,24.336,32.544,24.48,33.84,24.48,33.84,24.624,36.864,24.624,36.864,24.48,37.296,24.48,37.296,24.336,37.728,24.336,37.728,24.192,38.16,24.192,38.16,24.048,38.592,24.048,38.592,23.904,39.024,23.904,39.024,23.76,39.456,23.76,39.456,23.616,39.888,23.616,39.888,23.472,40.32,23.472,40.32,23.328,40.752,23.328,40.752,23.184,41.184,23.184,41.184,23.04,41.616,23.04,41.616,22.896,42.048,22.896,42.048,22.752,42.48,22.752,42.48,22.608,42.912,22.608,42.912,22.464,43.344,22.464,43.344,22.32,43.776,22.32,43.776,22.176,44.208,22.176,44.208,22.032,44.64,22.032,44.64,21.888,45.072,21.888,45.072,21.744,45.504,21.744,45.504,21.6,45.936,21.6,45.936,21.456,46.368,21.456,46.368,21.312,46.656,21.312,46.656,19.008,46.8,19.008,46.8,18.432,46.944,18.432,46.944,18.144,47.088,18.144,47.088,17.856,47.232,17.856,47.232,17.712,47.376,17.712,47.376,17.424,47.52,17.424,47.52,17.28,47.664,17.28,47.664,17.136,47.808,17.136,47.808,16.992,47.952,16.992,47.952,16.848,48.096,16.848,48.096,16.704,48.24,16.704,48.24,16.56,48.528,16.56,48.528,16.416,48.672,16.416,48.672,16.272,48.96,16.272,48.96,16.128,49.392,16.128,49.392,15.984,49.824,15.984,49.824,15.84" fill="black" stroke="none" stroke-width="0"/>
    <polygon  points="0,22.176,0,32.112,6.768,32.112,6.768,31.968,6.048,31.968,6.048,31.824,5.616,31.824,5.616,31.68,5.328,31.68,5.328,31.536,5.04,31.536,5.04,31.392,4.896,31.392,4.896,31.248,4.608,31.248,4.608,31.104,4.464,31.104,4.464,30.96,4.176,30.96,4.176,30.816,4.032,30.816,4.032,30.672,3.888,30.672,3.888,30.528,3.744,30.528,3.744,30.24,3.6,30.24,3.6,30.096,3.456,30.096,3.456,29.952,3.312,29.952,3.312,29.664,3.168,29.664,3.168,29.376,3.024,29.376,3.024,29.088,2.88,29.088,2.88,28.8,2.736,28.8,2.736,28.224,2.592,28.224,2.592,27.216,2.448,27.216,2.448,26.928,2.592,26.928,2.592,25.92,2.736,25.92,2.736,25.488,2.88,25.488,2.88,25.056,3.024,25.056,3.024,24.768,3.168,24.768,3.168,24.48,3.312,24.48,3.312,24.336,3.456,24.336,3.456,24.048,3.6,24.048,3.6,23.904,3.744,23.904,3.744,23.76,3.888,23.76,3.888,23.616,4.032,23.616,4.032,23.472,4.176,23.472,4.176,23.328,4.32,23.328,4.32,23.184,4.464,23.184,4.464,23.04,4.752,23.04,4.752,22.896,4.896,22.896,4.896,22.752,5.184,22.752,5.184,22.608,5.472,22.608,5.472,22.464,5.904,22.464,5.904,22.32,6.336,22.32,6.336,22.176" fill="black" stroke="none" stroke-width="0"/>
    <polygon  points="69.264,22.608,69.264,24.048,73.296,24.048,73.296,23.904,73.008,23.904,73.008,23.76,72.72,23.76,72.72,23.616,72.432,23.616,72.432,23.472,72.144,23.472,72.144,23.328,71.856,23.328,71.856,23.184,71.568,23.184,71.568,23.04,71.28,23.04,71.28,22.896,70.992,22.896,70.992,22.752,70.704,22.752,70.704,22.608" fill="black" stroke="none" stroke-width="0"/>
    <polygon  points="53.568,22.752,53.568,22.896,53.424,22.896,53.424,23.04,53.28,23.04,53.28,23.184,53.136,23.184,53.136,23.472,52.992,23.472,52.992,23.76,52.848,23.76,52.848,24.048,57.456,24.048,57.456,23.904,56.736,23.904,56.736,23.76,56.304,23.76,56.304,23.616,56.016,23.616,56.016,23.472,55.728,23.472,55.728,23.328,55.584,23.328,55.584,23.184,55.44,23.184,55.44,23.04,55.152,23.04,55.152,22.896,55.008,22.896,55.008,22.752" fill="black" stroke="none" stroke-width="0"/>
    <polygon  points="10.656,23.184,10.656,23.328,10.8,23.328,10.8,23.472,11.088,23.472,11.088,23.616,11.232,23.616,11.232,23.904,26.928,23.904,26.928,23.76,27.216,23.76,27.216,23.616,27.504,23.616,27.504,23.472,27.792,23.472,27.792,23.328,28.224,23.328,28.224,23.184" fill="black" stroke="none" stroke-width="0"/>
    <polygon  points="59.472,23.616,59.472,23.76,59.04,23.76,59.04,23.904,58.464,23.904,58.464,24.048,61.056,24.048,61.056,23.616" fill="black" stroke="none" stroke-width="0"/>
    <polygon  points="52.704,24.048,52.704,24.192,73.584,24.192,73.584,24.048" fill="black" stroke="none" stroke-width="0"/>
    <polygon  points="52.704,24.048,52.704,24.192,73.584,24.192,73.584,24.048" fill="black" stroke="none" stroke-width="0"/>
    <polygon  points="52.704,24.048,52.704,24.192,73.584,24.192,73.584,24.048" fill="black" stroke="none" stroke-width="0"/>
    <polygon  points="52.704,24.192,52.704,24.336,52.56,24.336,52.56,24.624,52.416,24.624,52.416,24.768,52.272,24.768,52.272,25.056,52.128,25.056,52.128,25.2,51.984,25.2,51.984,25.488,51.84,25.488,51.84,25.632,51.696,25.632,51.696,25.776,51.552,25.776,51.552,25.92,51.408,25.92,51.408,26.064,51.264,26.064,51.264,26.352,51.12,26.352,51.12,26.496,50.976,26.496,50.976,26.64,50.832,26.64,50.832,26.784,50.688,26.784,50.688,26.928,50.544,26.928,50.544,27.072,50.4,27.072,50.4,27.216,50.112,27.216,50.112,27.36,49.968,27.36,49.968,27.504,49.824,27.504,49.824,27.648,49.68,27.648,49.68,27.792,49.392,27.792,49.392,27.936,49.248,27.936,49.248,28.08,48.96,28.08,48.96,28.224,48.816,28.224,48.816,28.368,48.528,28.368,48.528,28.512,48.384,28.512,48.384,28.656,48.096,28.656,48.096,28.8,47.808,28.8,47.808,28.944,47.52,28.944,47.52,29.088,47.232,29.088,47.232,29.232,46.944,29.232,46.944,29.376,46.656,29.376,46.656,29.52,46.224,29.52,46.224,29.664,45.936,29.664,45.936,29.808,45.504,29.808,45.504,29.952,45.072,29.952,45.072,30.096,44.496,30.096,44.496,30.24,43.92,30.24,43.92,30.384,43.344,30.384,43.344,30.528,42.624,30.528,42.624,30.672,41.76,30.672,41.76,30.816,40.608,30.816,40.608,30.96,38.448,30.96,38.448,31.104,87.408,31.104,87.408,30.96,87.12,30.96,87.12,30.816,86.832,30.816,86.832,30.672,86.544,30.672,86.544,30.528,86.256,30.528,86.256,30.384,85.968,30.384,85.968,30.24,85.68,30.24,85.68,30.096,85.392,30.096,85.392,29.952,85.104,29.952,85.104,29.808,84.816,29.808,84.816,29.664,84.528,29.664,84.528,29.52,84.24,29.52,84.24,29.376,83.952,29.376,83.952,29.232,83.664,29.232,83.664,29.088,83.376,29.088,83.376,28.944,83.088,28.944,83.088,28.8,82.8,28.8,82.8,28.656,82.512,28.656,82.512,28.512,82.224,28.512,82.224,28.368,81.936,28.368,81.936,28.224,81.648,28.224,81.648,28.08,81.36,28.08,81.36,27.936,81.072,27.936,81.072,27.792,80.784,27.792,80.784,27.648,80.496,27.648,80.496,27.504,80.208,27.504,80.208,27.36,79.92,27.36,79.92,27.216,79.632,27.216,79.632,27.072,79.344,27.072,79.344,26.928,79.056,26.928,79.056,26.784,78.768,26.784,78.768,26.64,78.48,26.64,78.48,26.496,78.192,26.496,78.192,26.352,77.904,26.352,77.904,26.208,77.616,26.208,77.616,26.064,77.328,26.064,77.328,25.92,77.04,25.92,77.04,25.776,76.752,25.776,76.752,25.632,76.464,25.632,76.464,25.488,76.176,25.488,76.176,25.344,75.888,25.344,75.888,25.2,75.6,25.2,75.6,25.056,75.312,25.056,75.312,24.912,75.024,24.912,75.024,24.768,74.736,24.768,74.736,24.624,74.448,24.624,74.448,24.48,74.16,24.48,74.16,24.336,73.872,24.336,73.872,24.192" fill="black" stroke="none" stroke-width="0"/>
    <polygon  points="11.376,30.24,11.376,30.384,11.232,30.384,11.232,30.528,11.088,30.528,11.088,30.672,10.944,30.672,10.944,30.816,10.8,30.816,10.8,30.96,10.656,30.96,10.656,31.104,28.656,31.104,28.656,30.96,27.936,30.96,27.936,30.816,27.504,30.816,27.504,30.672,27.36,30.672,27.36,30.528,27.072,30.528,27.072,30.384,26.784,30.384,26.784,30.24" fill="black" stroke="none" stroke-width="0"/>
    <polygon  points="30.672,30.672,30.672,30.816,30.24,30.816,30.24,30.96,29.664,30.96,29.664,31.104,36,31.104,36,30.96,33.696,30.96,33.696,30.816,32.256,30.816,32.256,30.672" fill="black" stroke="none" stroke-width="0"/>
    <polygon  points="10.368,31.104,10.368,31.248,87.696,31.248,87.696,31.104" fill="black" stroke="none" stroke-width="0"/>
    <polygon  points="10.368,31.104,10.368,31.248,87.696,31.248,87.696,31.104" fill="black" stroke="none" stroke-width="0"/>
    <polygon  points="10.368,31.104,10.368,31.248,87.696,31.248,87.696,31.104" fill="black" stroke="none" stroke-width="0"/>
    <polygon  points="10.224,31.248,10.224,31.392,9.936,31.392,9.936,31.536,9.648,31.536,9.648,31.68,9.36,31.68,9.36,31.824,8.928,31.824,8.928,31.968,8.352,31.968,8.352,32.112,89.424,32.112,89.424,31.968,89.136,31.968,89.136,31.824,88.848,31.824,88.848,31.68,88.56,31.68,88.56,31.536,88.272,31.536,88.272,31.392,87.984,31.392,87.984,31.248" fill="black" stroke="none" stroke-width="0"/>
    <polygon  points="0,32.112,0,32.256,89.712,32.256,89.712,32.112" fill="black" stroke="none" stroke-width="0"/>
    <polygon  points="0,32.112,0,32.256,89.712,32.256,89.712,32.112" fill="black" stroke="none" stroke-width="0"/>
    <polygon  points="0,32.256,0,36.576,8.64,36.576,8.64,36.72,9.216,36.72,9.216,36.864,9.504,36.864,9.504,37.008,9.792,37.008,9.792,37.152,10.08,37.152,10.08,37.296,10.368,37.296,10.368,37.44,10.512,37.44,10.512,37.584,29.952,37.584,29.952,37.728,30.528,37.728,30.528,37.872,30.816,37.872,30.816,38.016,31.104,38.016,31.104,38.16,31.248,38.16,31.248,38.304,31.536,38.304,31.536,38.448,31.68,38.448,31.68,38.592,32.256,38.592,32.256,38.736,32.832,38.736,32.832,38.88,33.552,38.88,33.552,39.024,33.984,39.024,33.984,39.168,34.56,39.168,34.56,39.312,34.992,39.312,34.992,39.456,35.424,39.456,35.424,39.6,35.856,39.6,35.856,39.744,36.144,39.744,36.144,39.888,36.576,39.888,36.576,40.032,36.864,40.032,36.864,40.176,37.152,40.176,37.152,40.32,37.584,40.32,37.584,40.464,37.872,40.464,37.872,40.608,38.16,40.608,38.16,40.752,38.448,40.752,38.448,40.896,38.736,40.896,38.736,41.04,38.88,41.04,38.88,41.184,39.168,41.184,39.168,41.328,39.456,41.328,39.456,41.472,39.744,41.472,39.744,41.616,39.888,41.616,39.888,41.76,40.176,41.76,40.176,41.904,40.32,41.904,40.32,42.048,40.608,42.048,40.608,42.192,40.752,42.192,40.752,42.336,41.04,42.336,41.04,42.48,41.184,42.48,41.184,42.624,41.472,42.624,41.472,42.768,41.616,42.768,41.616,42.912,41.76,42.912,41.76,43.056,42.048,43.056,42.048,43.2,42.192,43.2,42.192,43.344,42.336,43.344,42.336,43.488,42.624,43.488,42.624,43.632,42.768,43.632,42.768,43.776,42.912,43.776,42.912,43.92,43.056,43.92,43.056,44.064,43.2,44.064,43.2,44.208,43.488,44.208,43.488,44.352,43.632,44.352,43.632,44.496,43.776,44.496,43.776,44.64,43.92,44.64,43.92,44.784,44.064,44.784,44.064,44.928,44.208,44.928,44.208,45.072,44.352,45.072,44.352,45.216,44.496,45.216,44.496,45.36,44.64,45.36,44.64,45.504,44.784,45.504,44.784,45.648,44.928,45.648,44.928,45.792,45.072,45.792,45.072,45.936,45.216,45.936,45.216,46.08,45.36,46.08,45.36,46.224,45.504,46.224,45.504,46.368,45.648,46.368,45.648,46.512,45.792,46.512,45.792,46.8,45.936,46.8,45.936,46.944,46.08,46.944,46.08,47.088,46.224,47.088,46.224,47.232,46.368,47.232,46.368,47.376,46.512,47.376,46.512,47.52,46.656,47.52,46.656,47.808,46.8,47.808,46.8,47.952,46.944,47.952,46.944,48.096,47.088,48.096,47.088,48.24,47.232,48.24,47.232,48.528,47.376,48.528,47.376,48.672,47.52,48.672,47.52,48.816,47.664,48.816,47.664,49.104,47.808,49.104,47.808,49.248,47.952,49.248,47.952,49.536,48.096,49.536,48.096,49.68,48.24,49.68,48.24,49.968,48.384,49.968,48.384,50.112,48.528,50.112,48.528,50.4,48.672,50.4,48.672,50.544,48.816,50.544,48.816,50.832,48.96,50.832,48.96,50.976,49.104,50.976,49.104,51.264,49.248,51.264,49.248,51.552,49.392,51.552,49.392,51.696,49.536,51.696,49.536,51.984,49.68,51.984,49.68,52.272,49.824,52.272,49.824,52.56,49.968,52.56,49.968,52.704,50.112,52.704,50.112,52.992,50.256,52.992,50.256,53.28,50.4,53.28,50.4,53.568,50.544,53.568,50.544,53.856,50.688,53.856,50.688,54.144,50.832,54.144,50.832,54.432,50.976,54.432,50.976,54.72,51.12,54.72,51.12,55.152,51.264,55.152,51.264,55.44,51.408,55.44,51.408,55.728,51.552,55.728,51.552,56.016,51.696,56.016,51.696,56.448,51.84,56.448,51.84,56.736,51.984,56.736,51.984,57.168,52.128,57.168,52.128,57.456,52.272,57.456,52.272,57.888,52.416,57.888,52.416,58.176,52.56,58.176,52.56,58.608,52.704,58.608,52.704,58.896,65.952,58.896,65.952,59.04,66.528,59.04,66.528,59.184,66.96,59.184,66.96,59.328,67.104,59.328,67.104,59.472,67.392,59.472,67.392,59.616,67.536,59.616,67.536,59.76,69.552,59.76,69.552,59.616,70.272,59.616,70.272,59.472,71.136,59.472,71.136,59.328,71.856,59.328,71.856,59.184,72.72,59.184,72.72,59.04,73.44,59.04,73.44,58.896,74.304,58.896,74.304,58.752,75.024,58.752,75.024,58.608,75.888,58.608,75.888,58.464,76.608,58.464,76.608,58.32,77.472,58.32,77.472,58.176,78.192,58.176,78.192,58.032,79.056,58.032,79.056,57.888,79.776,57.888,79.776,57.744,80.64,57.744,80.64,57.6,81.36,57.6,81.36,57.456,82.224,57.456,82.224,57.312,82.512,57.312,82.512,57.024,82.656,57.024,82.656,56.736,82.8,56.736,82.8,56.448,82.944,56.448,82.944,56.16,83.088,56.16,83.088,55.872,83.232,55.872,83.232,55.584,83.376,55.584,83.376,55.296,83.52,55.296,83.52,55.008,83.664,55.008,83.664,54.72,83.808,54.72,83.808,54.432,83.952,54.432,83.952,54.144,84.096,54.144,84.096,53.856,84.24,53.856,84.24,53.568,84.384,53.568,84.384,53.28,84.528,53.28,84.528,52.992,84.672,52.992,84.672,52.704,84.816,52.704,84.816,52.416,84.96,52.416,84.96,52.128,85.104,52.128,85.104,51.84,85.248,51.84,85.248,51.552,85.392,51.552,85.392,51.264,85.536,51.264,85.536,50.976,85.68,50.976,85.68,50.688,85.824,50.688,85.824,50.4,85.968,50.4,85.968,50.112,86.112,50.112,86.112,49.824,86.256,49.824,86.256,49.536,86.4,49.536,86.4,49.248,86.544,49.248,86.544,48.96,86.688,48.96,86.688,48.672,86.832,48.672,86.832,48.384,86.976,48.384,86.976,48.096,87.12,48.096,87.12,47.808,87.264,47.808,87.264,47.52,87.408,47.52,87.408,47.232,87.552,47.232,87.552,46.944,87.696,46.944,87.696,46.656,87.84,46.656,87.84,46.368,87.984,46.368,87.984,46.08,88.128,46.08,88.128,45.792,88.272,45.792,88.272,45.504,88.416,45.504,88.416,45.216,88.56,45.216,88.56,44.928,88.704,44.928,88.704,44.64,88.848,44.64,88.848,44.352,88.992,44.352,88.992,44.064,89.136,44.064,89.136,43.776,89.28,43.776,89.28,43.488,89.424,43.488,89.424,43.2,89.568,43.2,89.568,42.912,89.712,42.912,89.712,42.624,89.856,42.624,89.856,42.336,90,42.336,90,42.048,90.144,42.048,90.144,41.76,90.288,41.76,90.288,41.472,90.432,41.472,90.432,41.184,90.576,41.184,90.576,40.896,90.72,40.896,90.72,40.608,90.864,40.608,90.864,40.32,91.008,40.32,91.008,40.032,91.152,40.032,91.152,37.296,91.008,37.296,91.008,37.152,90.864,37.152,90.864,37.008,90.72,37.008,90.72,36.864,90.576,36.864,90.576,36.576,90.432,36.576,90.432,36.432,90.288,36.432,90.288,36.144,90.144,36.144,90.144,35.856,90,35.856,90,35.424,89.856,35.424,89.856,34.416,89.712,34.416,89.712,34.272,89.856,34.272,89.856,32.256" fill="black" stroke="none" stroke-width="0"/>
    <polygon  points="0,36.576,0,46.512,6.768,46.512,6.768,46.368,6.048,46.368,6.048,46.224,5.616,46.224,5.616,46.08,5.328,46.08,5.328,45.936,5.04,45.936,5.04,45.792,4.896,45.792,4.896,45.648,4.608,45.648,4.608,45.504,4.464,45.504,4.464,45.36,4.176,45.36,4.176,45.216,4.032,45.216,4.032,45.072,3.888,45.072,3.888,44.928,3.744,44.928,3.744,44.64,3.6,44.64,3.6,44.496,3.456,44.496,3.456,44.352,3.312,44.352,3.312,44.064,3.168,44.064,3.168,43.776,3.024,43.776,3.024,43.488,2.88,43.488,2.88,43.2,2.736,43.2,2.736,42.624,2.592,42.624,2.592,41.616,2.448,41.616,2.448,41.328,2.592,41.328,2.592,40.32,2.736,40.32,2.736,39.888,2.88,39.888,2.88,39.456,3.024,39.456,3.024,39.168,3.168,39.168,3.168,38.88,3.312,38.88,3.312,38.736,3.456,38.736,3.456,38.448,3.6,38.448,3.6,38.304,3.744,38.304,3.744,38.16,3.888,38.16,3.888,38.016,4.032,38.016,4.032,37.872,4.176,37.872,4.176,37.728,4.32,37.728,4.32,37.584,4.464,37.584,4.464,37.44,4.752,37.44,4.752,37.296,4.896,37.296,4.896,37.152,5.184,37.152,5.184,37.008,5.472,37.008,5.472,36.864,5.904,36.864,5.904,36.72,6.336,36.72,6.336,36.576" fill="black" stroke="none" stroke-width="0"/>
    <polygon  points="10.656,37.584,10.656,37.728,10.8,37.728,10.8,37.872,11.088,37.872,11.088,38.016,11.232,38.016,11.232,38.304,26.928,38.304,26.928,38.16,27.216,38.16,27.216,38.016,27.504,38.016,27.504,37.872,27.792,37.872,27.792,37.728,28.224,37.728,28.224,37.584" fill="black" stroke="none" stroke-width="0"/>
    <polygon  points="11.376,44.64,11.376,44.784,11.232,44.784,11.232,44.928,11.088,44.928,11.088,45.072,10.944,45.072,10.944,45.216,10.8,45.216,10.8,45.36,10.656,45.36,10.656,45.504,28.656,45.504,28.656,45.36,27.936,45.36,27.936,45.216,27.504,45.216,27.504,45.072,27.36,45.072,27.36,44.928,27.072,44.928,27.072,44.784,26.784,44.784,26.784,44.64" fill="black" stroke="none" stroke-width="0"/>
    <polygon  points="30.672,45.072,30.672,45.216,30.24,45.216,30.24,45.36,29.664,45.36,29.664,45.504,32.976,45.504,32.976,45.36,32.688,45.36,32.688,45.216,32.112,45.216,32.112,45.072" fill="black" stroke="none" stroke-width="0"/>
    <polygon  points="10.368,45.504,10.368,45.648,33.12,45.648,33.12,45.504" fill="black" stroke="none" stroke-width="0"/>
    <polygon  points="10.368,45.504,10.368,45.648,33.12,45.648,33.12,45.504" fill="black" stroke="none" stroke-width="0"/>
    <polygon  points="10.224,45.648,10.224,45.792,9.936,45.792,9.936,45.936,9.648,45.936,9.648,46.08,9.36,46.08,9.36,46.224,8.928,46.224,8.928,46.368,8.352,46.368,8.352,46.512,33.984,46.512,33.984,46.368,33.84,46.368,33.84,46.224,33.696,46.224,33.696,46.08,33.552,46.08,33.552,45.936,33.408,45.936,33.408,45.792,33.264,45.792,33.264,45.648" fill="black" stroke="none" stroke-width="0"/>
    <polygon  points="0,46.512,0,46.656,34.128,46.656,34.128,46.512" fill="black" stroke="none" stroke-width="0"/>
    <polygon  points="0,46.512,0,46.656,34.128,46.656,34.128,46.512" fill="black" stroke="none" stroke-width="0"/>
    <polygon  points="0,46.656,0,75.456,57.024,75.456,57.024,74.016,56.592,74.016,56.592,73.872,56.304,73.872,56.304,73.728,56.016,73.728,56.016,73.584,55.584,73.584,55.584,73.44,55.44,73.44,55.44,73.296,55.152,73.296,55.152,73.152,54.864,73.152,54.864,73.008,54.576,73.008,54.576,72.864,54.288,72.864,54.288,72.72,54.144,72.72,54.144,72.576,53.856,72.576,53.856,72.432,53.568,72.432,53.568,72.288,53.424,72.288,53.424,72.144,53.136,72.144,53.136,72,52.992,72,52.992,71.856,52.848,71.856,52.848,71.712,52.56,71.712,52.56,71.568,52.416,71.568,52.416,71.424,52.272,71.424,52.272,71.28,51.984,71.28,51.984,71.136,51.84,71.136,51.84,70.992,51.696,70.992,51.696,70.848,51.552,70.848,51.552,70.704,51.408,70.704,51.408,70.56,51.264,70.56,51.264,70.416,51.12,70.416,51.12,70.272,50.976,70.272,50.976,70.128,50.832,70.128,50.832,69.984,50.688,69.984,50.688,69.84,50.544,69.84,50.544,69.696,50.4,69.696,50.4,69.552,50.256,69.552,50.256,69.408,50.112,69.408,50.112,69.264,49.968,69.264,49.968,69.12,49.824,69.12,49.824,68.832,49.68,68.832,49.68,68.688,49.536,68.688,49.536,68.544,49.392,68.544,49.392,68.256,49.248,68.256,49.248,68.112,49.104,68.112,49.104,67.824,48.96,67.824,48.96,67.68,48.816,67.68,48.816,67.392,46.512,67.392,46.512,60.192,46.368,60.192,46.368,59.76,46.224,59.76,46.224,59.472,46.08,59.472,46.08,59.04,45.936,59.04,45.936,58.752,45.792,58.752,45.792,58.32,45.648,58.32,45.648,58.032,45.504,58.032,45.504,57.888,45.36,57.888,45.36,57.744,45.216,57.744,45.216,57.6,45.072,57.6,45.072,57.456,44.928,57.456,44.928,57.312,44.784,57.312,44.784,57.168,44.64,57.168,44.64,57.024,44.496,57.024,44.496,56.88,44.352,56.88,44.352,56.736,44.208,56.736,44.208,56.592,44.064,56.592,44.064,56.448,43.92,56.448,43.92,56.304,43.776,56.304,43.776,56.16,43.632,56.16,43.632,56.016,43.488,56.016,43.488,55.872,43.344,55.872,43.344,55.728,43.2,55.728,43.2,55.584,43.056,55.584,43.056,55.44,42.912,55.44,42.912,55.296,42.768,55.296,42.768,55.152,42.624,55.152,42.624,55.008,42.48,55.008,42.48,54.864,42.336,54.864,42.336,54.72,42.192,54.72,42.192,54.576,42.048,54.576,42.048,54.432,41.904,54.432,41.904,54.288,41.76,54.288,41.76,54.144,41.616,54.144,41.616,54,41.472,54,41.472,53.856,41.328,53.856,41.328,53.712,41.184,53.712,41.184,53.568,41.04,53.568,41.04,53.424,40.896,53.424,40.896,53.28,40.752,53.28,40.752,53.136,40.608,53.136,40.608,52.992,40.464,52.992,40.464,52.848,40.32,52.848,40.32,52.704,40.176,52.704,40.176,52.56,40.032,52.56,40.032,52.416,39.888,52.416,39.888,52.272,39.744,52.272,39.744,52.128,39.6,52.128,39.6,51.984,39.456,51.984,39.456,51.84,39.312,51.84,39.312,51.696,39.168,51.696,39.168,51.552,39.024,51.552,39.024,51.408,38.88,51.408,38.88,51.264,38.736,51.264,38.736,51.12,38.592,51.12,38.592,50.976,38.448,50.976,38.448,50.832,38.304,50.832,38.304,50.688,38.16,50.688,38.16,50.544,38.016,50.544,38.016,50.4,37.872,50.4,37.872,50.256,37.728,50.256,37.728,50.112,37.584,50.112,37.584,49.968,37.44,49.968,37.44,49.824,37.296,49.824,37.296,49.68,37.152,49.68,37.152,49.536,37.008,49.536,37.008,49.392,36.864,49.392,36.864,49.248,36.72,49.248,36.72,49.104,36.576,49.104,36.576,48.96,36.432,48.96,36.432,48.816,36.288,48.816,36.288,48.672,36.144,48.672,36.144,48.528,36,48.528,36,48.384,35.856,48.384,35.856,48.24,35.712,48.24,35.712,48.096,35.568,48.096,35.568,47.952,35.424,47.952,35.424,47.808,35.28,47.808,35.28,47.664,35.136,47.664,35.136,47.52,34.992,47.52,34.992,47.376,34.848,47.376,34.848,47.232,34.704,47.232,34.704,47.088,34.56,47.088,34.56,46.944,34.416,46.944,34.416,46.8,34.272,46.8,34.272,46.656" fill="black" stroke="none" stroke-width="0"/>
    <polygon  points="55.008,58.896,55.008,62.064,56.88,62.064,56.88,61.92,57.6,61.92,57.6,61.776,58.464,61.776,58.464,61.632,59.184,61.632,59.184,61.488,60.048,61.488,60.048,61.344,60.768,61.344,60.768,61.2,61.344,61.2,61.344,61.056,61.488,61.056,61.488,60.768,61.632,60.768,61.632,60.624,61.776,60.624,61.776,60.48,61.92,60.48,61.92,60.192,62.064,60.192,62.064,60.048,62.208,60.048,62.208,59.904,62.496,59.904,62.496,59.76,62.64,59.76,62.64,59.616,62.784,59.616,62.784,59.472,63.072,59.472,63.072,59.328,63.36,59.328,63.36,59.184,63.648,59.184,63.648,59.04,64.224,59.04,64.224,58.896" fill="black" stroke="none" stroke-width="0"/>
    <g  id="connector0pad">
     <circle  cx="5.76554" cy="4.95" fill="black" r="2.7" stroke="none" stroke-width="0"/>
    </g>
   </g>
  </g>
 </g>
 <g partID="854896880">
  <g transform="translate(89.424,2.88)">
   <g  id="groundplane">
    <g  id="connector0pad">
     <polygon  points="0,0,0,1.44,8.352,1.44,8.352,1.584,8.928,1.584,8.928,1.728,10.512,1.728,10.512,1.584,11.376,1.584,11.376,1.44,12.384,1.44,12.384,0" fill="black" stroke="none" stroke-width="0"/>
     <polygon  points="1.296,1.44,1.296,1.584,2.592,1.584,2.592,1.728,3.744,1.728,3.744,1.872,5.616,1.872,5.616,1.728,5.904,1.728,5.904,1.584,6.336,1.584,6.336,1.44" fill="black" stroke="none" stroke-width="0"/>
    </g>
   </g>
  </g>
 </g>
 <g partID="854896890">
  <g transform="translate(74.736,10.944)">
   <g  id="groundplane">
    <polygon  points="15.552,0,15.552,0.144,18,0.144,18,0" fill="black" stroke="none" stroke-width="0"/>
    <polygon  points="15.12,0.144,15.12,0.288,14.832,0.288,14.832,0.432,14.4,0.432,14.4,0.576,14.112,0.576,14.112,0.72,13.68,0.72,13.68,0.864,13.392,0.864,13.392,1.008,12.96,1.008,12.96,1.152,12.672,1.152,12.672,1.296,12.24,1.296,12.24,1.44,11.952,1.44,11.952,1.584,21.312,1.584,21.312,1.44,20.736,1.44,20.736,1.296,20.304,1.296,20.304,1.152,20.16,1.152,20.16,1.008,19.872,1.008,19.872,0.864,19.584,0.864,19.584,0.72,19.44,0.72,19.44,0.576,19.296,0.576,19.296,0.432,19.152,0.432,19.152,0.288,19.008,0.288,19.008,0.144" fill="black" stroke="none" stroke-width="0"/>
    <polygon  points="25.056,0.144,25.056,0.432,24.768,0.432,24.768,0.576,24.624,0.576,24.624,0.72,24.48,0.72,24.48,0.864,24.336,0.864,24.336,1.008,24.048,1.008,24.048,1.152,23.76,1.152,23.76,1.296,23.328,1.296,23.328,1.44,22.752,1.44,22.752,1.584,28.8,1.584,28.8,1.44,28.656,1.44,28.656,1.296,28.368,1.296,28.368,1.152,28.08,1.152,28.08,1.008,27.936,1.008,27.936,0.864,27.648,0.864,27.648,0.72,27.36,0.72,27.36,0.576,27.216,0.576,27.216,0.432,26.928,0.432,26.928,0.288,26.64,0.288,26.64,0.144" fill="black" stroke="none" stroke-width="0"/>
    <polygon  points="11.52,1.584,11.52,1.728,29.088,1.728,29.088,1.584" fill="black" stroke="none" stroke-width="0"/>
    <polygon  points="11.52,1.584,11.52,1.728,29.088,1.728,29.088,1.584" fill="black" stroke="none" stroke-width="0"/>
    <polygon  points="11.232,1.728,11.232,1.872,10.8,1.872,10.8,2.016,10.512,2.016,10.512,2.16,10.08,2.16,10.08,2.304,9.792,2.304,9.792,2.448,9.36,2.448,9.36,2.592,9.072,2.592,9.072,2.736,8.64,2.736,8.64,2.88,8.352,2.88,8.352,3.024,7.92,3.024,7.92,3.168,7.632,3.168,7.632,3.312,7.2,3.312,7.2,3.456,6.912,3.456,6.912,3.6,6.48,3.6,6.48,3.744,6.192,3.744,6.192,3.888,5.76,3.888,5.76,4.032,5.472,4.032,5.472,4.176,5.04,4.176,5.04,4.32,4.752,4.32,4.752,4.464,4.32,4.464,4.32,4.608,4.032,4.608,4.032,4.752,3.6,4.752,3.6,4.896,3.312,4.896,3.312,5.04,2.88,5.04,2.88,5.184,2.592,5.184,2.592,5.328,2.16,5.328,2.16,5.472,1.872,5.472,1.872,5.616,1.44,5.616,1.44,5.76,1.152,5.76,1.152,5.904,0.72,5.904,0.72,6.048,0.432,6.048,0.432,6.192,0,6.192,0,7.344,7.632,7.344,7.632,7.488,9.504,7.488,9.504,7.632,10.656,7.632,10.656,7.776,11.52,7.776,11.52,7.92,12.384,7.92,12.384,8.064,12.96,8.064,12.96,8.208,13.536,8.208,13.536,8.352,14.112,8.352,14.112,8.496,14.688,8.496,14.688,8.64,15.12,8.64,15.12,8.784,15.552,8.784,15.552,8.928,15.84,8.928,15.84,9.072,16.272,9.072,16.272,9.216,16.56,9.216,16.56,9.36,16.992,9.36,16.992,9.504,17.28,9.504,17.28,9.648,17.568,9.648,17.568,9.792,17.856,9.792,17.856,9.936,18.144,9.936,18.144,10.08,18.288,10.08,18.288,10.224,18.576,10.224,18.576,10.368,18.864,10.368,18.864,10.512,19.008,10.512,19.008,10.656,19.296,10.656,19.296,10.8,19.584,10.8,19.584,10.944,19.728,10.944,19.728,11.088,19.872,11.088,19.872,11.232,20.16,11.232,20.16,11.376,20.304,11.376,20.304,11.52,20.448,11.52,20.448,11.664,20.592,11.664,20.592,11.808,20.88,11.808,20.88,11.952,21.024,11.952,21.024,12.096,21.168,12.096,21.168,12.24,21.312,12.24,21.312,12.384,21.456,12.384,21.456,12.528,21.6,12.528,21.6,12.672,21.744,12.672,21.744,12.816,21.888,12.816,21.888,12.96,22.032,12.96,22.032,13.104,22.176,13.104,22.176,13.392,22.32,13.392,22.32,13.536,22.464,13.536,22.464,13.68,22.608,13.68,22.608,13.824,22.752,13.824,22.752,14.112,22.896,14.112,22.896,14.256,23.04,14.256,23.04,14.4,23.184,14.4,23.184,14.688,23.328,14.688,23.328,14.832,23.472,14.832,23.472,15.12,23.616,15.12,23.616,15.408,23.76,15.408,23.76,15.552,23.904,15.552,23.904,15.84,24.048,15.84,24.048,16.128,24.192,16.128,24.192,16.56,24.336,16.56,24.336,16.848,24.48,16.848,24.48,17.136,24.624,17.136,24.624,17.568,24.768,17.568,24.768,18,24.912,18,24.912,18.432,25.056,18.432,25.056,18.864,25.2,18.864,25.2,19.584,25.344,19.584,25.344,20.304,25.488,20.304,25.488,21.6,25.632,21.6,25.632,24.336,25.776,24.336,25.776,24.624,25.92,24.624,25.92,24.912,26.064,24.912,26.064,25.632,26.208,25.632,26.208,26.928,26.064,26.928,26.064,27.504,25.92,27.504,25.92,27.936,25.776,27.936,25.776,28.224,25.632,28.224,25.632,30.384,25.776,30.384,25.776,37.008,25.632,37.008,25.632,38.448,25.488,38.448,25.488,39.456,25.344,39.456,25.344,40.32,25.2,40.32,25.2,41.04,25.056,41.04,25.056,41.616,24.912,41.616,24.912,42.192,24.768,42.192,24.768,42.768,24.624,42.768,24.624,43.344,24.48,43.344,24.48,43.776,24.336,43.776,24.336,44.208,24.192,44.208,24.192,44.64,24.048,44.64,24.048,44.928,23.904,44.928,23.904,45.36,23.76,45.36,23.76,46.656,25.344,46.656,25.344,46.512,26.208,46.512,26.208,46.368,26.928,46.368,26.928,46.224,27.792,46.224,27.792,46.08,28.512,46.08,28.512,45.936,29.376,45.936,29.376,45.792,30.096,45.792,30.096,45.648,30.96,45.648,30.96,45.504,31.68,45.504,31.68,45.36,32.544,45.36,32.544,45.216,33.264,45.216,33.264,45.072,34.128,45.072,34.128,44.928,34.848,44.928,34.848,44.784,35.712,44.784,35.712,44.64,36.432,44.64,36.432,44.496,37.296,44.496,37.296,44.352,38.016,44.352,38.016,44.208,38.88,44.208,38.88,44.064,39.6,44.064,39.6,43.92,40.464,43.92,40.464,43.776,41.184,43.776,41.184,43.632,42.048,43.632,42.048,43.488,42.768,43.488,42.768,43.344,43.632,43.344,43.632,43.2,44.352,43.2,44.352,43.056,45.216,43.056,45.216,42.912,45.936,42.912,45.936,42.768,46.8,42.768,46.8,42.624,47.52,42.624,47.52,42.48,48.384,42.48,48.384,42.336,49.104,42.336,49.104,42.192,49.824,42.192,49.824,42.048,49.968,42.048,49.968,41.904,50.256,41.904,50.256,41.76,50.544,41.76,50.544,41.616,50.688,41.616,50.688,41.472,50.976,41.472,50.976,41.328,51.12,41.328,51.12,41.184,51.408,41.184,51.408,41.04,51.696,41.04,51.696,40.896,51.84,40.896,51.84,40.752,52.128,40.752,52.128,40.608,52.272,40.608,52.272,40.464,52.56,40.464,52.56,40.32,52.848,40.32,52.848,40.176,52.992,40.176,52.992,40.032,53.28,40.032,53.28,39.888,53.424,39.888,53.424,39.744,53.712,39.744,53.712,36.288,57.888,36.288,57.888,36.144,58.032,36.144,58.032,36,58.176,36,58.176,35.856,58.32,35.856,58.32,35.712,58.464,35.712,58.464,35.568,58.608,35.568,58.608,35.424,58.752,35.424,58.752,35.28,58.896,35.28,58.896,35.136,59.04,35.136,59.04,34.992,59.328,34.992,59.328,34.848,59.472,34.848,59.472,34.704,59.616,34.704,59.616,34.56,59.76,34.56,59.76,34.416,60.048,34.416,60.048,34.272,60.192,34.272,60.192,34.128,60.336,34.128,60.336,33.984,60.624,33.984,60.624,33.84,60.768,33.84,60.768,33.696,61.056,33.696,61.056,33.552,61.2,33.552,61.2,33.408,61.488,33.408,61.488,33.264,61.776,33.264,61.776,33.12,61.92,33.12,61.92,32.976,62.208,32.976,62.208,32.832,62.496,32.832,62.496,32.688,62.784,32.688,62.784,32.544,63.072,32.544,63.072,32.4,63.36,32.4,63.36,32.256,63.648,32.256,63.648,32.112,63.936,32.112,63.936,31.968,64.224,31.968,64.224,31.824,64.656,31.824,64.656,31.68,64.944,31.68,64.944,31.536,65.376,31.536,65.376,31.392,65.808,31.392,65.808,31.248,66.384,31.248,66.384,31.104,66.816,31.104,66.816,30.96,67.392,30.96,67.392,29.52,64.656,29.52,64.656,29.376,63.792,29.376,63.792,29.232,63.216,29.232,63.216,29.088,62.784,29.088,62.784,28.944,62.352,28.944,62.352,28.8,62.064,28.8,62.064,28.656,61.632,28.656,61.632,28.512,61.344,28.512,61.344,28.368,61.056,28.368,61.056,28.224,60.768,28.224,60.768,28.08,60.624,28.08,60.624,27.936,60.336,27.936,60.336,27.792,60.192,27.792,60.192,27.648,59.904,27.648,59.904,27.504,59.76,27.504,59.76,27.36,59.616,27.36,59.616,27.216,59.472,27.216,59.472,27.072,59.184,27.072,59.184,26.928,59.04,26.928,59.04,26.784,58.896,26.784,58.896,26.64,58.752,26.64,58.752,26.496,58.608,26.496,58.608,26.352,58.464,26.352,58.464,26.208,58.32,26.208,58.32,26.064,58.176,26.064,58.176,25.92,58.032,25.92,58.032,25.632,57.888,25.632,57.888,25.488,57.744,25.488,57.744,25.344,57.6,25.344,57.6,25.056,57.456,25.056,57.456,24.912,57.312,24.912,57.312,24.768,57.168,24.768,57.168,24.48,57.024,24.48,57.024,24.192,56.88,24.192,56.88,24.048,56.736,24.048,56.736,23.76,56.592,23.76,56.592,23.472,56.448,23.472,56.448,23.328,56.304,23.328,56.304,23.04,56.16,23.04,56.16,22.896,55.872,22.896,55.872,22.752,55.584,22.752,55.584,22.608,55.44,22.608,55.44,22.464,55.296,22.464,55.296,22.32,55.008,22.32,55.008,22.176,54.864,22.176,54.864,22.032,54.72,22.032,54.72,21.744,54.576,21.744,54.576,21.6,54.432,21.6,54.432,21.456,54.288,21.456,54.288,21.168,54.144,21.168,54.144,20.88,54,20.88,54,20.448,53.856,20.448,53.856,20.016,53.712,20.016,53.712,18.144,53.856,18.144,53.856,16.416,53.568,16.416,53.568,16.272,53.28,16.272,53.28,16.128,53.136,16.128,53.136,15.984,52.848,15.984,52.848,15.84,52.56,15.84,52.56,15.696,52.416,15.696,52.416,15.552,52.128,15.552,52.128,15.408,51.84,15.408,51.84,15.264,51.696,15.264,51.696,15.12,51.408,15.12,51.408,14.976,51.12,14.976,51.12,14.832,50.976,14.832,50.976,14.688,50.688,14.688,50.688,14.544,50.4,14.544,50.4,14.4,50.256,14.4,50.256,14.256,49.968,14.256,49.968,14.112,49.68,14.112,49.68,13.968,49.536,13.968,49.536,13.824,49.248,13.824,49.248,13.68,48.96,13.68,48.96,13.536,48.816,13.536,48.816,13.392,48.528,13.392,48.528,13.248,48.24,13.248,48.24,13.104,48.096,13.104,48.096,12.96,47.808,12.96,47.808,12.816,47.52,12.816,47.52,12.672,47.376,12.672,47.376,12.528,47.088,12.528,47.088,12.384,46.8,12.384,46.8,12.24,46.656,12.24,46.656,12.096,46.368,12.096,46.368,11.952,46.08,11.952,46.08,11.808,45.936,11.808,45.936,11.664,45.648,11.664,45.648,11.52,45.36,11.52,45.36,11.376,45.216,11.376,45.216,11.232,44.928,11.232,44.928,11.088,44.64,11.088,44.64,10.944,44.496,10.944,44.496,10.8,44.208,10.8,44.208,10.656,43.92,10.656,43.92,10.512,43.776,10.512,43.776,10.368,43.488,10.368,43.488,10.224,43.2,10.224,43.2,10.08,43.056,10.08,43.056,9.936,42.768,9.936,42.768,9.792,42.48,9.792,42.48,9.648,42.336,9.648,42.336,9.504,42.048,9.504,42.048,9.36,41.76,9.36,41.76,9.216,41.616,9.216,41.616,9.072,41.328,9.072,41.328,8.928,41.04,8.928,41.04,8.784,40.896,8.784,40.896,8.64,40.608,8.64,40.608,8.496,40.32,8.496,40.32,8.352,40.176,8.352,40.176,8.208,39.888,8.208,39.888,8.064,39.6,8.064,39.6,7.92,39.456,7.92,39.456,7.776,39.168,7.776,39.168,7.632,38.88,7.632,38.88,7.488,38.736,7.488,38.736,7.344,38.448,7.344,38.448,7.2,38.16,7.2,38.16,7.056,38.016,7.056,38.016,6.912,37.728,6.912,37.728,6.768,37.44,6.768,37.44,6.624,37.296,6.624,37.296,6.48,37.008,6.48,37.008,6.336,36.72,6.336,36.72,6.192,36.576,6.192,36.576,6.048,36.288,6.048,36.288,5.904,36,5.904,36,5.76,35.856,5.76,35.856,5.616,35.568,5.616,35.568,5.472,35.28,5.472,35.28,5.328,35.136,5.328,35.136,5.184,34.848,5.184,34.848,5.04,34.56,5.04,34.56,4.896,34.416,4.896,34.416,4.752,34.128,4.752,34.128,4.608,33.84,4.608,33.84,4.464,33.696,4.464,33.696,4.32,33.408,4.32,33.408,4.176,33.12,4.176,33.12,4.032,32.976,4.032,32.976,3.888,32.688,3.888,32.688,3.744,32.4,3.744,32.4,3.6,32.256,3.6,32.256,3.456,31.968,3.456,31.968,3.312,31.68,3.312,31.68,3.168,31.536,3.168,31.536,3.024,31.248,3.024,31.248,2.88,30.96,2.88,30.96,2.736,30.816,2.736,30.816,2.592,30.528,2.592,30.528,2.448,30.24,2.448,30.24,2.304,30.096,2.304,30.096,2.16,29.808,2.16,29.808,2.016,29.52,2.016,29.52,1.872,29.376,1.872,29.376,1.728" fill="black" stroke="none" stroke-width="0"/>
    <polygon  points="0,7.344,0,7.488,2.88,7.488,2.88,7.344" fill="black" stroke="none" stroke-width="0"/>
    <g  id="connector0pad">
     <circle  cx="22.8035" cy="7.353" fill="black" r="2.7" stroke="none" stroke-width="0"/>
    </g>
   </g>
  </g>
 </g>
 <g partID="854896900">
  <g transform="translate(87.264,2.88)">
   <g  id="groundplane">
    <polygon  points="27.504,0,27.504,1.44,28.368,1.44,28.368,1.584,28.944,1.584,28.944,1.728,29.664,1.728,29.664,1.872,30.24,1.872,30.24,2.016,30.672,2.016,30.672,2.16,31.248,2.16,31.248,2.304,31.68,2.304,31.68,2.448,32.112,2.448,32.112,2.592,32.544,2.592,32.544,2.736,32.832,2.736,32.832,2.88,33.264,2.88,33.264,3.024,33.552,3.024,33.552,3.168,33.984,3.168,33.984,3.312,34.272,3.312,34.272,3.456,34.56,3.456,34.56,3.6,34.848,3.6,34.848,3.744,35.136,3.744,35.136,3.888,35.424,3.888,35.424,4.032,35.712,4.032,35.712,4.176,36,4.176,36,4.32,36.288,4.32,36.288,4.464,36.432,4.464,36.432,4.608,36.72,4.608,36.72,4.752,37.008,4.752,37.008,4.896,37.152,4.896,37.152,5.04,37.44,5.04,37.44,5.184,37.584,5.184,37.584,5.328,37.872,5.328,37.872,5.472,38.016,5.472,38.016,5.616,38.304,5.616,38.304,5.76,38.448,5.76,38.448,5.904,38.592,5.904,38.592,6.048,38.88,6.048,38.88,6.192,39.024,6.192,39.024,6.336,39.168,6.336,39.168,6.48,39.456,6.48,39.456,6.624,39.6,6.624,39.6,6.768,39.744,6.768,39.744,6.912,39.888,6.912,39.888,7.056,40.032,7.056,40.032,7.2,40.176,7.2,40.176,7.344,40.464,7.344,40.464,7.488,40.608,7.488,40.608,7.632,40.752,7.632,40.752,7.776,40.896,7.776,40.896,7.92,41.04,7.92,41.04,8.064,41.184,8.064,41.184,8.208,41.328,8.208,41.328,8.352,41.472,8.352,41.472,8.496,41.616,8.496,41.616,8.64,41.76,8.64,41.76,8.784,41.904,8.784,41.904,9.072,42.048,9.072,42.048,9.216,42.192,9.216,42.192,9.36,42.336,9.36,42.336,9.504,42.48,9.504,42.48,9.648,42.624,9.648,42.624,9.792,42.768,9.792,42.768,10.08,42.912,10.08,42.912,10.224,43.056,10.224,43.056,10.368,43.2,10.368,43.2,10.656,43.344,10.656,43.344,10.8,43.488,10.8,43.488,10.944,43.632,10.944,43.632,11.232,43.776,11.232,43.776,11.376,43.92,11.376,43.92,11.664,44.064,11.664,44.064,11.808,44.208,11.808,44.208,12.096,44.352,12.096,44.352,12.24,44.496,12.24,44.496,12.528,44.64,12.528,44.64,12.672,44.784,12.672,44.784,12.96,44.928,12.96,44.928,13.248,45.072,13.248,45.072,13.392,45.216,13.392,45.216,13.68,45.36,13.68,45.36,13.968,45.504,13.968,45.504,14.256,45.648,14.256,45.648,14.544,45.792,14.544,45.792,14.832,45.936,14.832,45.936,15.12,46.08,15.12,46.08,15.552,46.224,15.552,46.224,15.84,46.368,15.84,46.368,16.128,46.512,16.128,46.512,16.56,46.656,16.56,46.656,16.848,46.8,16.848,46.8,17.28,46.944,17.28,46.944,17.568,47.088,17.568,47.088,18,47.232,18,47.232,18.432,47.376,18.432,47.376,19.008,47.52,19.008,47.52,19.44,47.664,19.44,47.664,20.016,47.808,20.016,47.808,20.592,47.952,20.592,47.952,21.168,48.096,21.168,48.096,21.888,48.24,21.888,48.24,22.176,82.656,22.176,82.656,22.32,83.232,22.32,83.232,22.464,83.52,22.464,83.52,22.608,83.808,22.608,83.808,22.752,84.096,22.752,84.096,22.896,84.384,22.896,84.384,23.04,84.528,23.04,84.528,23.184,84.672,23.184,84.672,23.328,84.816,23.328,84.816,23.472,85.104,23.472,85.104,23.616,85.248,23.616,85.248,23.904,85.392,23.904,85.392,24.048,85.536,24.048,85.536,24.192,85.68,24.192,85.68,24.48,85.824,24.48,85.824,24.624,85.968,24.624,85.968,24.912,86.112,24.912,86.112,25.2,86.256,25.2,86.256,25.632,86.4,25.632,86.4,26.352,86.544,26.352,86.544,27.792,86.4,27.792,86.4,28.512,86.256,28.512,86.256,28.944,86.112,28.944,86.112,29.232,85.968,29.232,85.968,29.52,85.824,29.52,85.824,29.808,85.68,29.808,85.68,29.952,85.536,29.952,85.536,30.24,85.392,30.24,85.392,30.384,85.248,30.384,85.248,30.528,85.104,30.528,85.104,30.672,84.96,30.672,84.96,30.816,84.816,30.816,84.816,30.96,84.672,30.96,84.672,31.104,84.384,31.104,84.384,31.248,84.24,31.248,84.24,31.392,83.952,31.392,83.952,31.536,83.664,31.536,83.664,31.68,83.376,31.68,83.376,31.824,82.944,31.824,82.944,31.968,82.368,31.968,82.368,32.112,98.064,32.112,98.064,0" fill="black" stroke="none" stroke-width="0"/>
    <polygon  points="48.24,22.176,48.24,22.752,48.384,22.752,48.384,23.616,48.528,23.616,48.528,23.904,48.672,23.904,48.672,24.192,48.816,24.192,48.816,24.336,48.96,24.336,48.96,24.48,49.104,24.48,49.104,24.624,49.248,24.624,49.248,24.912,49.392,24.912,49.392,25.2,49.536,25.2,49.536,25.488,49.68,25.488,49.68,25.92,49.824,25.92,49.824,26.64,49.968,26.64,49.968,27.072,67.968,27.072,67.968,26.928,68.4,26.928,68.4,26.784,68.832,26.784,68.832,26.64,69.12,26.64,69.12,26.496,69.552,26.496,69.552,26.352,69.984,26.352,69.984,26.208,70.416,26.208,70.416,26.064,70.848,26.064,70.848,25.92,71.28,25.92,71.28,25.776,71.712,25.776,71.712,25.632,72.288,25.632,72.288,25.488,72.72,25.488,72.72,25.344,73.296,25.344,73.296,25.2,73.728,25.2,73.728,25.056,74.304,25.056,74.304,24.912,74.88,24.912,74.88,24.768,75.6,24.768,75.6,24.624,76.176,24.624,76.176,24.48,77.04,24.48,77.04,24.336,77.472,24.336,77.472,24.048,77.616,24.048,77.616,23.904,77.76,23.904,77.76,23.76,77.904,23.76,77.904,23.616,78.048,23.616,78.048,23.472,78.192,23.472,78.192,23.328,78.336,23.328,78.336,23.184,78.48,23.184,78.48,23.04,78.768,23.04,78.768,22.896,78.912,22.896,78.912,22.752,79.2,22.752,79.2,22.608,79.488,22.608,79.488,22.464,79.92,22.464,79.92,22.32,80.352,22.32,80.352,22.176" fill="black" stroke="none" stroke-width="0"/>
    <polygon  points="76.32,30.96,76.32,31.104,75.744,31.104,75.744,31.248,75.168,31.248,75.168,31.392,74.592,31.392,74.592,31.536,74.16,31.536,74.16,31.68,73.728,31.68,73.728,31.824,73.296,31.824,73.296,31.968,72.864,31.968,72.864,32.112,80.784,32.112,80.784,31.968,80.064,31.968,80.064,31.824,79.632,31.824,79.632,31.68,79.344,31.68,79.344,31.536,79.056,31.536,79.056,31.392,78.912,31.392,78.912,31.248,78.624,31.248,78.624,31.104,78.48,31.104,78.48,30.96" fill="black" stroke="none" stroke-width="0"/>
    <polygon  points="72.432,32.112,72.432,32.256,98.064,32.256,98.064,32.112" fill="black" stroke="none" stroke-width="0"/>
    <polygon  points="72.432,32.112,72.432,32.256,98.064,32.256,98.064,32.112" fill="black" stroke="none" stroke-width="0"/>
    <polygon  points="71.856,32.256,71.856,32.4,71.424,32.4,71.424,32.544,71.136,32.544,71.136,32.688,70.704,32.688,70.704,32.832,70.272,32.832,70.272,32.976,69.84,32.976,69.84,33.12,69.552,33.12,69.552,33.264,69.12,33.264,69.12,33.408,68.688,33.408,68.688,33.552,68.4,33.552,68.4,33.696,67.968,33.696,67.968,33.84,67.536,33.84,67.536,33.984,67.248,33.984,67.248,34.128,66.816,34.128,66.816,34.272,66.528,34.272,66.528,34.416,66.096,34.416,66.096,34.56,65.664,34.56,65.664,34.704,65.376,34.704,65.376,34.848,64.944,34.848,64.944,34.992,64.512,34.992,64.512,35.136,64.224,35.136,64.224,35.28,63.792,35.28,63.792,35.424,63.36,35.424,63.36,35.568,62.928,35.568,62.928,35.712,62.64,35.712,62.64,35.856,62.208,35.856,62.208,36,61.776,36,61.776,36.144,61.344,36.144,61.344,36.288,60.912,36.288,60.912,36.432,60.336,36.432,60.336,36.576,82.656,36.576,82.656,36.72,83.232,36.72,83.232,36.864,83.52,36.864,83.52,37.008,83.808,37.008,83.808,37.152,84.096,37.152,84.096,37.296,84.384,37.296,84.384,37.44,84.528,37.44,84.528,37.584,84.672,37.584,84.672,37.728,84.816,37.728,84.816,37.872,85.104,37.872,85.104,38.016,85.248,38.016,85.248,38.304,85.392,38.304,85.392,38.448,85.536,38.448,85.536,38.592,85.68,38.592,85.68,38.88,85.824,38.88,85.824,39.024,85.968,39.024,85.968,39.312,86.112,39.312,86.112,39.6,86.256,39.6,86.256,40.032,86.4,40.032,86.4,40.752,86.544,40.752,86.544,42.192,86.4,42.192,86.4,42.912,86.256,42.912,86.256,43.344,86.112,43.344,86.112,43.632,85.968,43.632,85.968,43.92,85.824,43.92,85.824,44.208,85.68,44.208,85.68,44.352,85.536,44.352,85.536,44.64,85.392,44.64,85.392,44.784,85.248,44.784,85.248,44.928,85.104,44.928,85.104,45.072,84.96,45.072,84.96,45.216,84.816,45.216,84.816,45.36,84.672,45.36,84.672,45.504,84.384,45.504,84.384,45.648,84.24,45.648,84.24,45.792,83.952,45.792,83.952,45.936,83.808,45.936,83.808,46.224,83.664,46.224,83.664,46.368,83.52,46.368,83.52,46.656,83.376,46.656,83.376,46.8,83.232,46.8,83.232,46.944,83.088,46.944,83.088,47.088,82.944,47.088,82.944,47.232,82.8,47.232,82.8,47.376,82.656,47.376,82.656,47.52,82.368,47.52,82.368,47.664,82.224,47.664,82.224,47.808,82.08,47.808,82.08,47.952,81.648,47.952,81.648,48.096,81.36,48.096,81.36,48.24,81.072,48.24,81.072,48.384,80.64,48.384,80.64,48.528,79.776,48.528,79.776,48.672,98.064,48.672,98.064,32.256" fill="black" stroke="none" stroke-width="0"/>
    <polygon  points="59.904,36.576,59.904,36.72,59.472,36.72,59.472,36.864,58.896,36.864,58.896,37.008,58.32,37.008,58.32,38.304,60.624,38.304,60.624,38.448,62.784,38.448,62.784,38.592,64.08,38.592,64.08,38.736,64.944,38.736,64.944,38.88,65.808,38.88,65.808,39.024,66.528,39.024,66.528,39.168,67.104,39.168,67.104,39.312,67.824,39.312,67.824,39.456,68.4,39.456,68.4,39.6,68.976,39.6,68.976,39.744,69.408,39.744,69.408,39.888,69.984,39.888,69.984,40.032,70.56,40.032,70.56,40.176,70.992,40.176,70.992,40.32,71.424,40.32,71.424,40.464,71.856,40.464,71.856,40.608,72.432,40.608,72.432,40.752,72.864,40.752,72.864,40.896,73.296,40.896,73.296,41.04,73.872,41.04,73.872,41.184,74.304,41.184,74.304,41.328,74.736,41.328,74.736,41.472,76.464,41.472,76.464,41.328,76.608,41.328,76.608,40.32,76.752,40.32,76.752,39.888,76.896,39.888,76.896,39.456,77.04,39.456,77.04,39.168,77.184,39.168,77.184,38.88,77.328,38.88,77.328,38.736,77.472,38.736,77.472,38.448,77.616,38.448,77.616,38.304,77.76,38.304,77.76,38.16,77.904,38.16,77.904,38.016,78.048,38.016,78.048,37.872,78.192,37.872,78.192,37.728,78.336,37.728,78.336,37.584,78.48,37.584,78.48,37.44,78.768,37.44,78.768,37.296,78.912,37.296,78.912,37.152,79.2,37.152,79.2,37.008,79.488,37.008,79.488,36.864,79.92,36.864,79.92,36.72,80.352,36.72,80.352,36.576" fill="black" stroke="none" stroke-width="0"/>
    <polygon  points="62.64,45.216,62.64,45.36,61.92,45.36,61.92,45.504,61.2,45.504,61.2,45.648,60.48,45.648,60.48,45.792,59.76,45.792,59.76,45.936,59.04,45.936,59.04,46.08,58.32,46.08,58.32,46.224,57.6,46.224,57.6,46.368,56.88,46.368,56.88,46.512,56.16,46.512,56.16,46.656,55.44,46.656,55.44,46.8,54.72,46.8,54.72,46.944,54,46.944,54,47.088,53.28,47.088,53.28,47.232,52.56,47.232,52.56,47.376,51.84,47.376,51.84,47.52,51.12,47.52,51.12,47.664,50.976,47.664,50.976,47.808,50.688,47.808,50.688,47.952,50.544,47.952,50.544,48.096,50.4,48.096,50.4,48.24,50.256,48.24,50.256,48.384,50.112,48.384,50.112,48.528,49.968,48.528,49.968,48.672,77.76,48.672,77.76,48.528,76.752,48.528,76.752,48.384,76.032,48.384,76.032,48.24,75.456,48.24,75.456,48.096,74.88,48.096,74.88,47.952,74.304,47.952,74.304,47.808,73.872,47.808,73.872,47.664,73.296,47.664,73.296,47.52,72.864,47.52,72.864,47.376,72.432,47.376,72.432,47.232,71.856,47.232,71.856,47.088,71.424,47.088,71.424,46.944,70.992,46.944,70.992,46.8,70.56,46.8,70.56,46.656,69.984,46.656,69.984,46.512,69.552,46.512,69.552,46.368,69.12,46.368,69.12,46.224,68.544,46.224,68.544,46.08,68.112,46.08,68.112,45.936,67.536,45.936,67.536,45.792,66.96,45.792,66.96,45.648,66.384,45.648,66.384,45.504,65.808,45.504,65.808,45.36,65.088,45.36,65.088,45.216" fill="black" stroke="none" stroke-width="0"/>
    <polygon  points="49.968,48.672,49.968,48.816,98.064,48.816,98.064,48.672" fill="black" stroke="none" stroke-width="0"/>
    <polygon  points="49.968,48.672,49.968,48.816,98.064,48.816,98.064,48.672" fill="black" stroke="none" stroke-width="0"/>
    <polygon  points="49.968,48.816,49.968,53.136,44.352,53.136,44.352,53.28,44.208,53.28,44.208,53.424,43.92,53.424,43.92,53.568,43.776,53.568,43.776,53.712,43.488,53.712,43.488,53.856,43.2,53.856,43.2,54,43.056,54,43.056,54.144,42.768,54.144,42.768,54.288,42.624,54.288,42.624,54.432,42.336,54.432,42.336,54.576,42.048,54.576,42.048,54.72,41.904,54.72,41.904,54.864,41.616,54.864,41.616,55.008,41.328,55.008,41.328,55.152,41.184,55.152,41.184,55.296,40.896,55.296,40.896,55.44,40.752,55.44,40.752,55.584,40.464,55.584,40.464,55.728,40.176,55.728,40.176,55.872,40.032,55.872,40.032,56.016,39.744,56.016,39.744,56.16,39.456,56.16,39.456,56.304,39.312,56.304,39.312,56.448,39.024,56.448,39.024,56.592,38.736,56.592,38.736,56.736,38.592,56.736,38.592,56.88,38.304,56.88,38.304,57.024,38.016,57.024,38.016,57.168,37.872,57.168,37.872,57.312,37.584,57.312,37.584,57.456,37.296,57.456,37.296,57.6,37.152,57.6,37.152,57.744,36.864,57.744,36.864,57.888,36.576,57.888,36.576,58.032,36.432,58.032,36.432,58.176,36.144,58.176,36.144,58.32,35.856,58.32,35.856,58.464,35.568,58.464,35.568,58.608,35.424,58.608,35.424,58.752,35.136,58.752,35.136,58.896,34.848,58.896,34.848,59.04,34.56,59.04,34.56,59.184,34.416,59.184,34.416,59.328,34.128,59.328,34.128,59.472,33.84,59.472,33.84,59.616,33.552,59.616,33.552,59.76,33.408,59.76,33.408,59.904,33.12,59.904,33.12,60.048,32.832,60.048,32.832,60.192,32.544,60.192,32.544,60.336,32.256,60.336,32.256,60.48,32.112,60.48,32.112,60.624,31.824,60.624,31.824,60.768,31.536,60.768,31.536,60.912,31.248,60.912,31.248,61.056,30.96,61.056,30.96,61.2,30.816,61.2,30.816,61.344,30.528,61.344,30.528,61.488,30.24,61.488,30.24,61.632,29.952,61.632,29.952,61.776,29.664,61.776,29.664,61.92,29.376,61.92,29.376,62.064,29.232,62.064,29.232,62.208,28.944,62.208,28.944,62.352,28.656,62.352,28.656,62.496,28.368,62.496,28.368,62.64,28.08,62.64,28.08,62.784,27.792,62.784,27.792,62.928,27.504,62.928,27.504,63.072,27.216,63.072,27.216,63.216,26.928,63.216,26.928,63.36,26.64,63.36,26.64,63.504,26.496,63.504,26.496,63.648,26.208,63.648,26.208,63.792,25.92,63.792,25.92,63.936,25.632,63.936,25.632,64.08,25.344,64.08,25.344,64.224,25.056,64.224,25.056,64.368,24.768,64.368,24.768,64.512,24.48,64.512,24.48,64.656,24.192,64.656,24.192,64.8,23.904,64.8,23.904,64.944,23.616,64.944,23.616,65.088,23.328,65.088,23.328,65.232,23.04,65.232,23.04,65.376,22.752,65.376,22.752,65.52,22.32,65.52,22.32,65.664,22.032,65.664,22.032,65.808,21.744,65.808,21.744,65.952,21.456,65.952,21.456,66.096,21.168,66.096,21.168,66.24,20.88,66.24,20.88,66.384,20.592,66.384,20.592,66.528,20.304,66.528,20.304,66.672,20.016,66.672,20.016,66.816,19.584,66.816,19.584,66.96,19.296,66.96,19.296,67.104,19.008,67.104,19.008,67.248,18.72,67.248,18.72,67.392,18.432,67.392,18.432,67.536,18,67.536,18,67.68,17.712,67.68,17.712,67.824,17.424,67.824,17.424,67.968,17.136,67.968,17.136,68.112,16.704,68.112,16.704,68.256,16.416,68.256,16.416,68.4,16.128,68.4,16.128,68.544,15.696,68.544,15.696,68.688,15.408,68.688,15.408,68.832,15.12,68.832,15.12,68.976,14.688,68.976,14.688,69.12,14.4,69.12,14.4,69.264,13.968,69.264,13.968,69.408,13.68,69.408,13.68,69.552,13.392,69.552,13.392,69.696,12.96,69.696,12.96,69.84,12.672,69.84,12.672,69.984,12.24,69.984,12.24,70.128,11.952,70.128,11.952,70.272,11.52,70.272,11.52,70.416,11.232,70.416,11.232,70.56,10.8,70.56,10.8,70.704,10.368,70.704,10.368,70.848,9.936,70.848,9.936,70.992,9.648,70.992,9.648,71.136,9.216,71.136,9.216,71.28,8.784,71.28,8.784,71.424,8.352,71.424,8.352,71.568,8.064,71.568,8.064,71.712,7.632,71.712,7.632,71.856,7.2,71.856,7.2,72,6.768,72,6.768,72.144,6.336,72.144,6.336,72.288,5.904,72.288,5.904,72.432,5.472,72.432,5.472,72.576,5.04,72.576,5.04,72.72,4.608,72.72,4.608,72.864,4.032,72.864,4.032,73.008,3.6,73.008,3.6,73.152,3.168,73.152,3.168,73.296,2.592,73.296,2.592,73.44,2.16,73.44,2.16,73.584,1.584,73.584,1.584,73.728,1.152,73.728,1.152,73.872,0.576,73.872,0.576,74.016,0,74.016,0,75.456,98.064,75.456,98.064,48.816" fill="black" stroke="none" stroke-width="0"/>
    <g  id="connector0pad">
     <circle  cx="45.621" cy="5.4945" fill="black" r="2.7" stroke="none" stroke-width="0"/>
    </g>
   </g>
  </g>
 </g>
 <g partID="57730">
  <g transform="translate(93.704,39.8917)">
   <g transform="matrix(0,-1,1,0,0,0)">
    <g  id="copper0">
     <g  id="copper1">
      <!-- <rect width="55" x="10" y="15.5" fill="none" height="55" stroke="rgb(255, 191, 0)" stroke-width="20" />  -->
      <circle  cx="2.7" fill="none" cy="3.096" r="1.98" stroke="black" stroke-width="1.44" id="connector0pin"/>
      <circle  cx="31.5" fill="none" cy="3.096" r="1.98" stroke="black" stroke-width="1.44" id="connector1pin"/>
     </g>
    </g>
   </g>
  </g>
 </g>
 <g partID="854874750">
  <g transform="translate(29.12,47.2717)">
   <g transform="matrix(0,-1,1,0,0,0)">
    <g  id="copper0">
     <g  id="copper1">
      <circle  cx="2.88" cy="2.88" fill="none" r="1.8" stroke="black" stroke-width="1.44" id="connector0pin"/>
      <circle  cx="17.28" cy="2.88" fill="none" r="1.8" stroke="black" stroke-width="1.44" id="connector1pin"/>
     </g>
    </g>
   </g>
  </g>
 </g>
 <g partID="854870390">
  <g transform="translate(110.84,62.7517)">
   <g transform="matrix(0,-1,1,0,0,0)">
    <g  id="copper0">
     <rect x="8.928"  width="4.464" fill="none" stroke="black" stroke-width="1.44" height="4.464" id="rect11" y="19.728"/>
     <circle  cx="11.16" cy="21.96" fill="none" r="2.232" stroke="black" stroke-width="1.44" id="connector0pin"/>
     <circle  cx="32.76" cy="21.96" fill="none" r="2.232" stroke="black" stroke-width="1.44" id="connector1pin"/>
    </g>
   </g>
  </g>
 </g>
 <g partID="854873870">
  <g transform="translate(163.76,24.9517)">
   <g  id="copper0">
    <circle  cx="5.04" cy="5.04" fill="none" r="2.84599" stroke="black" stroke-width="1.44" id="connector0pin"/>
    <circle  cx="5.04" cy="19.44" fill="none" r="2.84599" stroke="black" stroke-width="1.44" id="connector1pin"/>
   </g>
  </g>
 </g>
 <g partID="854873290">
  <g transform="translate(5.36,24.9517)">
   <g  id="copper0">
    <circle  cx="5.04" cy="5.04" fill="none" r="2.84599" stroke="black" stroke-width="1.44" id="connector0pin"/>
    <circle  cx="5.04" cy="19.44" fill="none" r="2.84599" stroke="black" stroke-width="1.44" id="connector1pin"/>
   </g>
  </g>
 </g>
 <g partID="854867980">
  <g transform="translate(75.488,30.2797)">
   <g transform="matrix(-1,0,0,-1,0,0)">
    <g  id="copper0">
     <circle  cx="7.488" cy="7.488" fill="none" r="2.04066" stroke="black" connectorname="ADJ" stroke-width="1.24668" id="connector0pad"/>
     <path  fill="black" stroke="none" d="m4.824,4.824,5.328,0,0,5.328,-5.328,0,0,-5.328zM6.07068,7.488a1.41732,1.41732,0,1,0,2.83465,0,1.41732,1.41732,0,1,0,-2.83465,0z" stroke-width="0"/>
     <circle  cx="14.688" cy="7.488" fill="none" r="2.04066" stroke="black" connectorname="OUT" stroke-width="1.24668" id="connector2pad"/>
     <circle  cx="21.888" cy="7.488" fill="none" r="2.04066" stroke="black" connectorname="IN" stroke-width="1.24668" id="connector1pad"/>
    </g>
   </g>
  </g>
 </g>
 <g partID="854876510">
  <g transform="translate(48.56,71.0317)">
   <g transform="matrix(0,-1,1,0,0,0)">
    <g  id="copper0">
     <rect x="2.952"  width="4.176" fill="none" stroke="black" stroke-width="1.44" id="square" height="4.176" y="2.952"/>
     <circle  cx="5.04" cy="5.04" fill="none" r="2.088" stroke="black" stroke-width="1.44" id="connector0pin"/>
     <circle  cx="5.04" cy="19.44" fill="none" r="2.088" stroke="black" stroke-width="1.44" id="connector1pin"/>
     <circle  cx="5.04" cy="33.84" fill="none" r="2.088" stroke="black" stroke-width="1.44" id="connector2pin"/>
    </g>
   </g>
  </g>
 </g>
 <g partID="854880460">
  <line y1="29.9917" x1="14.126" y2="29.9917" x2="29.32" stroke="black" stroke-linecap="round" stroke-width="3.456"/>
 </g>
 <g partID="854880520">
  <path fill="none" stroke="black" d="M53.6,22.7917C53.6,22.7917, 53.7626,33.7318 32,29.9917" stroke-linecap="round" stroke-width="3.456"/>
 </g>
 <g partID="854880660">
  <line y1="65.9917" x1="80.232" y2="65.9917" x2="70.168" stroke="black" stroke-linecap="round" stroke-width="3.456"/>
 </g>
 <g partID="854880720">
  <path fill="none" stroke="black" d="M96.8,37.1917C99.7357,56.6999, 91.5762,63.6352 82.4,65.9917" stroke-linecap="round" stroke-width="3.456"/>
 </g>
 <g partID="854880880">
  <path fill="none" stroke="black" d="M68,22.7917C102.776,16.0397, 96.8,37.1917 96.8,37.1917" stroke-linecap="round" stroke-width="3.456"/>
 </g>
 <g partID="854881120">
  <path fill="none" stroke="black" d="M96.8,8.39167C128.438,1.07635, 132.8,22.7917 132.8,29.9917" stroke-linecap="round" stroke-width="3.456"/>
 </g>
 <g partID="854881280">
  <path fill="none" stroke="black" d="M60.8,22.7917C60.8,22.7917, 49.2915,1.07635 96.8,8.39167" stroke-linecap="round" stroke-width="3.456"/>
 </g>
 <g partID="854881360">
  <line y1="44.3917" x1="29.32" y2="44.3917" x2="14.126" stroke="black" stroke-linecap="round" stroke-width="3.456"/>
 </g>
 <g partID="854881420">
  <path fill="none" stroke="black" d="M53.6,65.9917C47.5422,43.8696, 32,44.3917 32,44.3917" stroke-linecap="round" stroke-width="3.456"/>
 </g>
 <g partID="854881580">
  <path fill="none" stroke="black" d="M132.8,51.5917C73.5354,90.1216, 53.6,73.1917 53.6,65.9917" stroke-linecap="round" stroke-width="3.456"/>
 </g>
 <g partID="854896830">
  <path fill="none" stroke="black" d="M168.8,44.3917C169.873,57.2305, 147.302,33.3281 132.8,51.5917" stroke-linecap="round" stroke-width="3.456"/>
 </g>
 <g partID="854896850">
  <path fill="none" stroke="black" d="M168.8,29.9917C153.634,30.2927, 138.023,46.4028 132.8,29.9917" stroke-linecap="round" stroke-width="3.456"/>
 </g>
</svg>
